<svg width="287" height="130" viewBox="0 0 287 130" fill="none" xmlns="http://www.w3.org/2000/svg">
<path d="M4.14316 1.29457C4.14316 1.55762 3.9295 1.8099 3.54918 1.99591C3.16885 2.18191 2.65303 2.28641 2.11517 2.28641C1.57731 2.28641 1.06148 2.18191 0.681162 1.99591C0.30084 1.8099 0.0871767 1.55762 0.0871767 1.29457C0.0871767 1.03152 0.30084 0.779242 0.681162 0.593237C1.06148 0.407231 1.57731 0.302734 2.11517 0.302734C2.65303 0.302734 3.16885 0.407231 3.54918 0.593237C3.9295 0.779242 4.14316 1.03152 4.14316 1.29457ZM29.7865 1.29457C29.7865 1.55762 29.5728 1.8099 29.1925 1.99591C28.8121 2.18191 28.2963 2.28641 27.7585 2.28641C27.2206 2.28641 26.7048 2.18191 26.3245 1.99591C25.9441 1.8099 25.7305 1.55762 25.7305 1.29457C25.7305 1.03152 25.9441 0.779242 26.3245 0.593237C26.7048 0.407231 27.2206 0.302734 27.7585 0.302734C28.2963 0.302734 28.8121 0.407231 29.1925 0.593237C29.5728 0.779242 29.7865 1.03152 29.7865 1.29457ZM55.4311 1.29457C55.4382 1.42693 55.391 1.55864 55.2924 1.68194C55.1937 1.80524 55.0456 1.91764 54.8567 2.01249C54.6678 2.10735 54.442 2.18275 54.1926 2.23425C53.9432 2.28574 53.6752 2.3123 53.4045 2.31234C53.1338 2.31239 52.8658 2.28592 52.6163 2.2345C52.3668 2.18309 52.1409 2.10776 51.9519 2.01297C51.7629 1.91817 51.6146 1.80583 51.5158 1.68256C51.4169 1.55929 51.3696 1.42759 51.3765 1.29523C51.3899 1.0367 51.6094 0.790964 51.9879 0.610408C52.3665 0.429852 52.8743 0.328756 53.4031 0.32867C53.9319 0.328584 54.4399 0.429514 54.8187 0.609946C55.1975 0.790379 55.4173 1.03604 55.4311 1.29457ZM81.0758 1.29457C81.0828 1.42693 81.0357 1.55864 80.937 1.68194C80.8383 1.80524 80.6902 1.91764 80.5013 2.01249C80.3124 2.10735 80.0866 2.18275 79.8372 2.23425C79.5878 2.28574 79.3199 2.3123 79.0491 2.31234C78.7784 2.31239 78.5104 2.28592 78.2609 2.2345C78.0114 2.18309 77.7855 2.10776 77.5965 2.01297C77.4075 1.91817 77.2592 1.80583 77.1604 1.68256C77.0616 1.55929 77.0142 1.42759 77.0211 1.29523C77.0346 1.0367 77.254 0.790964 77.6326 0.610408C78.0112 0.429852 78.519 0.328756 79.0478 0.32867C79.5766 0.328584 80.0845 0.429514 80.4633 0.609946C80.8422 0.790379 81.0619 1.03604 81.0758 1.29457ZM106.72 1.29457C106.72 1.55762 106.507 1.8099 106.126 1.99591C105.746 2.18191 105.23 2.28641 104.692 2.28641C104.155 2.28641 103.639 2.18191 103.258 1.99591C102.878 1.8099 102.664 1.55762 102.664 1.29457C102.664 1.03152 102.878 0.779242 103.258 0.593237C103.639 0.407231 104.155 0.302734 104.692 0.302734C105.23 0.302734 105.746 0.407231 106.126 0.593237C106.507 0.779242 106.72 1.03152 106.72 1.29457ZM132.365 1.29457C132.365 1.55762 132.151 1.8099 131.771 1.99591C131.391 2.18191 130.875 2.28641 130.337 2.28641C129.799 2.28641 129.283 2.18191 128.903 1.99591C128.523 1.8099 128.309 1.55762 128.309 1.29457C128.309 1.03152 128.523 0.779242 128.903 0.593237C129.283 0.407231 129.799 0.302734 130.337 0.302734C130.875 0.302734 131.391 0.407231 131.771 0.593237C132.151 0.779242 132.365 1.03152 132.365 1.29457ZM158.01 1.29457C158.017 1.42693 157.97 1.55864 157.871 1.68194C157.772 1.80524 157.624 1.91764 157.435 2.01249C157.246 2.10735 157.021 2.18275 156.771 2.23425C156.522 2.28574 156.254 2.3123 155.983 2.31234C155.712 2.31239 155.444 2.28592 155.195 2.2345C154.945 2.18309 154.719 2.10776 154.53 2.01297C154.341 1.91817 154.193 1.80583 154.094 1.68256C153.996 1.55929 153.948 1.42759 153.955 1.29523C153.969 1.0367 154.188 0.790964 154.567 0.610408C154.945 0.429852 155.453 0.328756 155.982 0.32867C156.511 0.328584 157.018 0.429514 157.397 0.609946C157.776 0.790379 157.996 1.03604 158.01 1.29457ZM183.653 1.29457C183.663 1.42778 183.618 1.56061 183.521 1.68513C183.424 1.80964 183.276 1.92329 183.087 2.01929C182.898 2.11528 182.671 2.19164 182.42 2.24382C182.169 2.29599 181.9 2.3229 181.627 2.32295C181.354 2.32299 181.085 2.29617 180.834 2.24407C180.583 2.19198 180.356 2.11569 180.167 2.01976C179.978 1.92383 179.83 1.81023 179.732 1.68574C179.635 1.56126 179.59 1.42844 179.6 1.29523C179.619 1.03862 179.84 0.795608 180.218 0.617319C180.596 0.43903 181.101 0.33936 181.626 0.339274C182.151 0.339189 182.655 0.438694 183.033 0.61686C183.412 0.795025 183.634 1.03796 183.653 1.29457ZM209.299 1.29457C209.299 1.42482 209.247 1.5538 209.145 1.67416C209.043 1.79451 208.894 1.90387 208.705 1.996C208.517 2.08813 208.294 2.16123 208.048 2.21111C207.802 2.261 207.538 2.2867 207.272 2.28674C207.005 2.28678 206.742 2.26117 206.496 2.21137C206.249 2.16156 206.026 2.08854 205.837 1.99647C205.649 1.9044 205.5 1.79509 205.398 1.67477C205.296 1.55445 205.243 1.42548 205.243 1.29523C205.243 1.03218 205.456 0.779869 205.837 0.593801C206.217 0.407734 206.732 0.303153 207.27 0.303065C207.808 0.302977 208.324 0.40739 208.705 0.593333C209.085 0.779277 209.299 1.03152 209.299 1.29457ZM234.942 1.29457C234.942 1.55762 234.729 1.8099 234.348 1.99591C233.968 2.18191 233.452 2.28641 232.914 2.28641C232.376 2.28641 231.861 2.18191 231.48 1.99591C231.1 1.8099 230.886 1.55762 230.886 1.29457C230.886 1.03152 231.1 0.779242 231.48 0.593237C231.861 0.407231 232.376 0.302734 232.914 0.302734C233.452 0.302734 233.968 0.407231 234.348 0.593237C234.729 0.779242 234.942 1.03152 234.942 1.29457ZM260.587 1.29457C260.597 1.42778 260.552 1.56061 260.455 1.68513C260.357 1.80964 260.21 1.92329 260.021 2.01929C259.832 2.11528 259.605 2.19164 259.354 2.24382C259.103 2.29599 258.834 2.3229 258.561 2.32295C258.288 2.32299 258.019 2.29617 257.768 2.24407C257.517 2.19198 257.29 2.11569 257.101 2.01976C256.912 1.92383 256.764 1.81023 256.666 1.68574C256.569 1.56126 256.524 1.42844 256.534 1.29523C256.553 1.03862 256.774 0.795608 257.152 0.617319C257.53 0.43903 258.035 0.33936 258.56 0.339274C259.085 0.339189 259.589 0.438694 259.967 0.61686C260.346 0.795025 260.568 1.03796 260.587 1.29457ZM286.232 1.29457C286.239 1.42693 286.191 1.55864 286.093 1.68194C285.994 1.80524 285.846 1.91764 285.657 2.01249C285.468 2.10735 285.242 2.18275 284.993 2.23425C284.744 2.28574 284.476 2.3123 284.205 2.31234C283.934 2.31239 283.666 2.28592 283.417 2.2345C283.167 2.18309 282.941 2.10776 282.752 2.01297C282.563 1.91817 282.415 1.80583 282.316 1.68256C282.217 1.55929 282.17 1.42759 282.177 1.29523C282.19 1.0367 282.41 0.790964 282.788 0.610408C283.167 0.429852 283.675 0.328756 284.204 0.32867C284.732 0.328584 285.24 0.429514 285.619 0.609946C285.998 0.790379 286.218 1.03604 286.232 1.29457ZM4.14316 14.0053C4.14316 14.2685 3.92936 14.521 3.54878 14.7071C3.16821 14.8932 2.65203 14.9978 2.11382 14.9978C1.5756 14.9978 1.05943 14.8932 0.678854 14.7071C0.298278 14.521 0.0844728 14.2685 0.0844728 14.0053C0.0844728 13.7421 0.298278 13.4896 0.678854 13.3035C1.05943 13.1174 1.5756 13.0128 2.11382 13.0128C2.65203 13.0128 3.16821 13.1174 3.54878 13.3035C3.92936 13.4896 4.14316 13.7421 4.14316 14.0053ZM29.7865 14.0053C29.7865 14.2683 29.5728 14.5206 29.1925 14.7066C28.8121 14.8926 28.2963 14.9971 27.7585 14.9971C27.2206 14.9971 26.7048 14.8926 26.3245 14.7066C25.9441 14.5206 25.7305 14.2683 25.7305 14.0053C25.7305 13.7422 25.9441 13.49 26.3245 13.304C26.7048 13.1179 27.2206 13.0135 27.7585 13.0135C28.2963 13.0135 28.8121 13.1179 29.1925 13.304C29.5728 13.49 29.7865 13.7422 29.7865 14.0053ZM55.4311 14.0053C55.4311 14.2683 55.2174 14.5206 54.8371 14.7066C54.4568 14.8926 53.941 14.9971 53.4031 14.9971C52.8653 14.9971 52.3494 14.8926 51.9691 14.7066C51.5888 14.5206 51.3751 14.2683 51.3751 14.0053C51.3751 13.7422 51.5888 13.49 51.9691 13.304C52.3494 13.1179 52.8653 13.0135 53.4031 13.0135C53.941 13.0135 54.4568 13.1179 54.8371 13.304C55.2174 13.49 55.4311 13.7422 55.4311 14.0053ZM81.0758 14.0053C81.0758 14.2683 80.8621 14.5206 80.4818 14.7066C80.1014 14.8926 79.5856 14.9971 79.0478 14.9971C78.5099 14.9971 77.9941 14.8926 77.6138 14.7066C77.2334 14.5206 77.0198 14.2683 77.0198 14.0053C77.0198 13.7422 77.2334 13.49 77.6138 13.304C77.9941 13.1179 78.5099 13.0135 79.0478 13.0135C79.5856 13.0135 80.1014 13.1179 80.4818 13.304C80.8621 13.49 81.0758 13.7422 81.0758 14.0053ZM106.72 14.0053C106.72 14.2684 106.507 14.5208 106.126 14.7069C105.746 14.8929 105.23 14.9975 104.692 14.9975C104.154 14.9975 103.638 14.8929 103.257 14.7069C102.877 14.5208 102.663 14.2684 102.663 14.0053C102.663 13.7422 102.877 13.4898 103.257 13.3037C103.638 13.1177 104.154 13.0131 104.692 13.0131C105.23 13.0131 105.746 13.1177 106.126 13.3037C106.507 13.4898 106.72 13.7422 106.72 14.0053ZM132.365 14.0053C132.365 14.1356 132.313 14.2646 132.211 14.385C132.109 14.5054 131.959 14.6147 131.771 14.7069C131.582 14.799 131.359 14.8721 131.113 14.9219C130.867 14.9718 130.603 14.9975 130.336 14.9975C130.07 14.9975 129.806 14.9718 129.56 14.9219C129.314 14.8721 129.09 14.799 128.902 14.7069C128.714 14.6147 128.564 14.5054 128.462 14.385C128.36 14.2646 128.308 14.1356 128.308 14.0053C128.308 13.7422 128.521 13.49 128.902 13.304C129.282 13.1179 129.798 13.0135 130.336 13.0135C130.874 13.0135 131.389 13.1179 131.77 13.304C132.15 13.49 132.364 13.7422 132.364 14.0053H132.365ZM158.01 14.0053C158.01 14.2683 157.796 14.5206 157.416 14.7066C157.035 14.8926 156.52 14.9971 155.982 14.9971C155.444 14.9971 154.928 14.8926 154.548 14.7066C154.167 14.5206 153.954 14.2683 153.954 14.0053C153.954 13.7422 154.167 13.49 154.548 13.304C154.928 13.1179 155.444 13.0135 155.982 13.0135C156.52 13.0135 157.035 13.1179 157.416 13.304C157.796 13.49 158.01 13.7422 158.01 14.0053ZM183.653 14.0053C183.653 14.2683 183.439 14.5206 183.059 14.7066C182.679 14.8926 182.163 14.9971 181.625 14.9971C181.087 14.9971 180.571 14.8926 180.191 14.7066C179.811 14.5206 179.597 14.2683 179.597 14.0053C179.597 13.7422 179.811 13.49 180.191 13.304C180.571 13.1179 181.087 13.0135 181.625 13.0135C182.163 13.0135 182.679 13.1179 183.059 13.304C183.439 13.49 183.653 13.7422 183.653 14.0053ZM209.299 14.0053C209.299 14.2683 209.085 14.5206 208.705 14.7066C208.325 14.8926 207.809 14.9971 207.271 14.9971C206.733 14.9971 206.217 14.8926 205.837 14.7066C205.457 14.5206 205.243 14.2683 205.243 14.0053C205.243 13.7422 205.457 13.49 205.837 13.304C206.217 13.1179 206.733 13.0135 207.271 13.0135C207.809 13.0135 208.325 13.1179 208.705 13.304C209.085 13.49 209.299 13.7422 209.299 14.0053ZM234.942 14.0053C234.942 14.2683 234.729 14.5206 234.348 14.7066C233.968 14.8926 233.452 14.9971 232.914 14.9971C232.376 14.9971 231.861 14.8926 231.48 14.7066C231.1 14.5206 230.886 14.2683 230.886 14.0053C230.886 13.7422 231.1 13.49 231.48 13.304C231.861 13.1179 232.376 13.0135 232.914 13.0135C233.452 13.0135 233.968 13.1179 234.348 13.304C234.729 13.49 234.942 13.7422 234.942 14.0053ZM260.587 14.0053C260.587 14.2683 260.373 14.5206 259.993 14.7066C259.613 14.8926 259.097 14.9971 258.559 14.9971C258.021 14.9971 257.505 14.8926 257.125 14.7066C256.745 14.5206 256.531 14.2683 256.531 14.0053C256.531 13.7422 256.745 13.49 257.125 13.304C257.505 13.1179 258.021 13.0135 258.559 13.0135C259.097 13.0135 259.613 13.1179 259.993 13.304C260.373 13.49 260.587 13.7422 260.587 14.0053ZM286.232 14.0053C286.232 14.2683 286.018 14.5206 285.638 14.7066C285.257 14.8926 284.741 14.9971 284.204 14.9971C283.666 14.9971 283.15 14.8926 282.77 14.7066C282.389 14.5206 282.176 14.2683 282.176 14.0053C282.176 13.7422 282.389 13.49 282.77 13.304C283.15 13.1179 283.666 13.0135 284.204 13.0135C284.741 13.0135 285.257 13.1179 285.638 13.304C286.018 13.49 286.232 13.7422 286.232 14.0053ZM4.14316 26.716C4.14316 26.9791 3.9295 27.2313 3.54918 27.4173C3.16885 27.6033 2.65303 27.7078 2.11517 27.7078C1.57731 27.7078 1.06148 27.6033 0.681162 27.4173C0.30084 27.2313 0.0871767 26.9791 0.0871767 26.716C0.0871767 26.453 0.30084 26.2007 0.681162 26.0147C1.06148 25.8287 1.57731 25.7242 2.11517 25.7242C2.65303 25.7242 3.16885 25.8287 3.54918 26.0147C3.9295 26.2007 4.14316 26.453 4.14316 26.716ZM29.7865 26.716C29.7865 26.9791 29.5728 27.2313 29.1925 27.4173C28.8121 27.6033 28.2963 27.7078 27.7585 27.7078C27.2206 27.7078 26.7048 27.6033 26.3245 27.4173C25.9441 27.2313 25.7305 26.9791 25.7305 26.716C25.7305 26.453 25.9441 26.2007 26.3245 26.0147C26.7048 25.8287 27.2206 25.7242 27.7585 25.7242C28.2963 25.7242 28.8121 25.8287 29.1925 26.0147C29.5728 26.2007 29.7865 26.453 29.7865 26.716ZM55.4311 26.716C55.4382 26.8484 55.391 26.9801 55.2924 27.1034C55.1937 27.2267 55.0456 27.3391 54.8567 27.4339C54.6678 27.5288 54.442 27.6042 54.1926 27.6557C53.9432 27.7072 53.6752 27.7337 53.4045 27.7338C53.1338 27.7338 52.8658 27.7074 52.6163 27.6559C52.3668 27.6045 52.1409 27.5292 51.9519 27.4344C51.7629 27.3396 51.6146 27.2273 51.5158 27.104C51.4169 26.9807 51.3696 26.849 51.3765 26.7167C51.3899 26.4581 51.6094 26.2124 51.9879 26.0318C52.3665 25.8513 52.8743 25.7502 53.4031 25.7501C53.9319 25.75 54.4399 25.851 54.8187 26.0314C55.1975 26.2118 55.4173 26.4575 55.4311 26.716ZM81.0758 26.716C81.0828 26.8484 81.0357 26.9801 80.937 27.1034C80.8383 27.2267 80.6902 27.3391 80.5013 27.4339C80.3124 27.5288 80.0866 27.6042 79.8372 27.6557C79.5878 27.7072 79.3199 27.7337 79.0491 27.7338C78.7784 27.7338 78.5104 27.7074 78.2609 27.6559C78.0114 27.6045 77.7855 27.5292 77.5965 27.4344C77.4075 27.3396 77.2592 27.2273 77.1604 27.104C77.0616 26.9807 77.0142 26.849 77.0211 26.7167C77.0346 26.4581 77.254 26.2124 77.6326 26.0318C78.0112 25.8513 78.519 25.7502 79.0478 25.7501C79.5766 25.75 80.0845 25.851 80.4633 26.0314C80.8422 26.2118 81.0619 26.4575 81.0758 26.716ZM106.72 26.716C106.72 26.9791 106.507 27.2313 106.126 27.4173C105.746 27.6033 105.23 27.7078 104.692 27.7078C104.155 27.7078 103.639 27.6033 103.258 27.4173C102.878 27.2313 102.664 26.9791 102.664 26.716C102.664 26.453 102.878 26.2007 103.258 26.0147C103.639 25.8287 104.155 25.7242 104.692 25.7242C105.23 25.7242 105.746 25.8287 106.126 26.0147C106.507 26.2007 106.72 26.453 106.72 26.716ZM132.365 26.716C132.365 26.9791 132.151 27.2313 131.771 27.4173C131.391 27.6033 130.875 27.7078 130.337 27.7078C129.799 27.7078 129.283 27.6033 128.903 27.4173C128.523 27.2313 128.309 26.9791 128.309 26.716C128.309 26.453 128.523 26.2007 128.903 26.0147C129.283 25.8287 129.799 25.7242 130.337 25.7242C130.875 25.7242 131.391 25.8287 131.771 26.0147C132.151 26.2007 132.365 26.453 132.365 26.716ZM158.01 26.716C158.017 26.8484 157.97 26.9801 157.871 27.1034C157.772 27.2267 157.624 27.3391 157.435 27.4339C157.246 27.5288 157.021 27.6042 156.771 27.6557C156.522 27.7072 156.254 27.7337 155.983 27.7338C155.712 27.7338 155.444 27.7074 155.195 27.6559C154.945 27.6045 154.719 27.5292 154.53 27.4344C154.341 27.3396 154.193 27.2273 154.094 27.104C153.996 26.9807 153.948 26.849 153.955 26.7167C153.969 26.4581 154.188 26.2124 154.567 26.0318C154.945 25.8513 155.453 25.7502 155.982 25.7501C156.511 25.75 157.018 25.851 157.397 26.0314C157.776 26.2118 157.996 26.4575 158.01 26.716ZM183.653 26.716C183.663 26.8492 183.618 26.982 183.521 27.1066C183.424 27.2311 183.276 27.3447 183.087 27.4407C182.898 27.5367 182.671 27.6131 182.42 27.6653C182.169 27.7174 181.9 27.7443 181.627 27.7444C181.354 27.7444 181.085 27.7176 180.834 27.6655C180.583 27.6134 180.356 27.5371 180.167 27.4412C179.978 27.3453 179.83 27.2317 179.732 27.1072C179.635 26.9827 179.59 26.8499 179.6 26.7167C179.619 26.4601 179.84 26.217 180.218 26.0388C180.596 25.8605 181.101 25.7608 181.626 25.7607C182.151 25.7606 182.655 25.8601 183.033 26.0383C183.412 26.2165 183.634 26.4594 183.653 26.716ZM209.299 26.716C209.299 26.8463 209.247 26.9752 209.145 27.0956C209.043 27.2159 208.894 27.3253 208.705 27.4174C208.517 27.5096 208.294 27.5827 208.048 27.6325C207.802 27.6824 207.538 27.7081 207.272 27.7082C207.005 27.7082 206.742 27.6826 206.496 27.6328C206.249 27.583 206.026 27.51 205.837 27.4179C205.649 27.3258 205.5 27.2165 205.398 27.0962C205.296 26.9759 205.243 26.8469 205.243 26.7167C205.243 26.4536 205.456 26.2013 205.837 26.0152C206.217 25.8292 206.732 25.7246 207.27 25.7245C207.808 25.7244 208.324 25.8288 208.705 26.0148C209.085 26.2007 209.299 26.453 209.299 26.716ZM234.942 26.716C234.942 26.9791 234.729 27.2313 234.348 27.4173C233.968 27.6033 233.452 27.7078 232.914 27.7078C232.376 27.7078 231.861 27.6033 231.48 27.4173C231.1 27.2313 230.886 26.9791 230.886 26.716C230.886 26.453 231.1 26.2007 231.48 26.0147C231.861 25.8287 232.376 25.7242 232.914 25.7242C233.452 25.7242 233.968 25.8287 234.348 26.0147C234.729 26.2007 234.942 26.453 234.942 26.716ZM260.587 26.716C260.597 26.8492 260.552 26.982 260.455 27.1066C260.357 27.2311 260.21 27.3447 260.021 27.4407C259.832 27.5367 259.605 27.6131 259.354 27.6653C259.103 27.7174 258.834 27.7443 258.561 27.7444C258.288 27.7444 258.019 27.7176 257.768 27.6655C257.517 27.6134 257.29 27.5371 257.101 27.4412C256.912 27.3453 256.764 27.2317 256.666 27.1072C256.569 26.9827 256.524 26.8499 256.534 26.7167C256.553 26.4601 256.774 26.217 257.152 26.0388C257.53 25.8605 258.035 25.7608 258.56 25.7607C259.085 25.7606 259.589 25.8601 259.967 26.0383C260.346 26.2165 260.568 26.4594 260.587 26.716ZM286.232 26.716C286.239 26.8484 286.191 26.9801 286.093 27.1034C285.994 27.2267 285.846 27.3391 285.657 27.4339C285.468 27.5288 285.242 27.6042 284.993 27.6557C284.744 27.7072 284.476 27.7337 284.205 27.7338C283.934 27.7338 283.666 27.7074 283.417 27.6559C283.167 27.6045 282.941 27.5292 282.752 27.4344C282.563 27.3396 282.415 27.2273 282.316 27.104C282.217 26.9807 282.17 26.849 282.177 26.7167C282.19 26.4581 282.41 26.2124 282.788 26.0318C283.167 25.8513 283.675 25.7502 284.204 25.7501C284.732 25.75 285.24 25.851 285.619 26.0314C285.998 26.2118 286.218 26.4575 286.232 26.716ZM4.14316 39.4274C4.14298 39.6906 3.92901 39.943 3.5483 40.1291C3.1676 40.3152 2.65136 40.4196 2.11314 40.4196C1.57493 40.4195 1.05883 40.3148 0.678376 40.1286C0.297927 39.9424 0.0842935 39.69 0.0844728 39.4267C0.0844728 39.1635 0.298278 38.9111 0.678854 38.7249C1.05943 38.5388 1.5756 38.4342 2.11382 38.4342C2.65203 38.4342 3.16821 38.5388 3.54878 38.7249C3.92936 38.9111 4.14316 39.1642 4.14316 39.4274ZM29.7865 39.4274C29.7864 39.5576 29.7338 39.6866 29.6318 39.8069C29.5298 39.9272 29.3804 40.0366 29.192 40.1286C29.0036 40.2207 28.78 40.2937 28.5339 40.3435C28.2878 40.3933 28.0241 40.4189 27.7578 40.4189C27.4915 40.4188 27.2278 40.3932 26.9818 40.3433C26.7357 40.2934 26.5122 40.2203 26.324 40.1282C26.1357 40.036 25.9864 39.9267 25.8846 39.8063C25.7828 39.686 25.7304 39.557 25.7305 39.4267C25.7305 39.1637 25.9441 38.9114 26.3245 38.7254C26.7048 38.5394 27.2206 38.4349 27.7585 38.4349C28.2963 38.4349 28.8121 38.5394 29.1925 38.7254C29.5728 38.9114 29.7865 39.1643 29.7865 39.4274ZM55.4311 39.4274C55.4311 39.6904 55.2174 39.9427 54.8371 40.1287C54.4568 40.3147 53.941 40.4192 53.4031 40.4192C52.8653 40.4192 52.3494 40.3147 51.9691 40.1287C51.5888 39.9427 51.3751 39.6904 51.3751 39.4274C51.3751 39.1643 51.5888 38.9121 51.9691 38.7261C52.3494 38.54 52.8653 38.4356 53.4031 38.4356C53.941 38.4356 54.4568 38.54 54.8371 38.7261C55.2174 38.9121 55.4311 39.1643 55.4311 39.4274ZM81.0758 39.4274C81.0758 39.6904 80.8621 39.9427 80.4818 40.1287C80.1014 40.3147 79.5856 40.4192 79.0478 40.4192C78.5099 40.4192 77.9941 40.3147 77.6138 40.1287C77.2334 39.9427 77.0198 39.6904 77.0198 39.4274C77.0198 39.1643 77.2334 38.9121 77.6138 38.7261C77.9941 38.54 78.5099 38.4356 79.0478 38.4356C79.5856 38.4356 80.1014 38.54 80.4818 38.7261C80.8621 38.9121 81.0758 39.1643 81.0758 39.4274ZM106.72 39.4274C106.72 39.5577 106.668 39.6867 106.566 39.807C106.464 39.9274 106.314 40.0368 106.126 40.1289C105.937 40.221 105.714 40.294 105.467 40.3438C105.221 40.3936 104.957 40.4193 104.691 40.4192C104.425 40.4192 104.161 40.3935 103.915 40.3436C103.669 40.2937 103.445 40.2206 103.257 40.1284C103.068 40.0362 102.919 39.9268 102.817 39.8064C102.715 39.686 102.663 39.557 102.663 39.4267C102.663 39.1636 102.877 38.9112 103.257 38.7252C103.638 38.5391 104.154 38.4346 104.692 38.4346C105.23 38.4346 105.746 38.5391 106.126 38.7252C106.507 38.9112 106.72 39.1642 106.72 39.4274ZM132.365 39.4274C132.365 39.6905 132.151 39.9429 131.77 40.1289C131.39 40.3149 130.874 40.4193 130.336 40.4192C129.798 40.4191 129.282 40.3145 128.901 40.1284C128.521 39.9423 128.308 39.6899 128.308 39.4267C128.308 39.1637 128.521 38.9114 128.902 38.7254C129.282 38.5394 129.798 38.4349 130.336 38.4349C130.874 38.4349 131.389 38.5394 131.77 38.7254C132.15 38.9114 132.364 39.1637 132.364 39.4267L132.365 39.4274ZM158.01 39.4274C158.01 39.6904 157.796 39.9427 157.416 40.1287C157.035 40.3147 156.52 40.4192 155.982 40.4192C155.444 40.4192 154.928 40.3147 154.548 40.1287C154.167 39.9427 153.954 39.6904 153.954 39.4274C153.954 39.1643 154.167 38.9121 154.548 38.7261C154.928 38.54 155.444 38.4356 155.982 38.4356C156.52 38.4356 157.035 38.54 157.416 38.7261C157.796 38.9121 158.01 39.1643 158.01 39.4274ZM183.653 39.4274C183.653 39.6904 183.439 39.9427 183.059 40.1287C182.679 40.3147 182.163 40.4192 181.625 40.4192C181.087 40.4192 180.571 40.3147 180.191 40.1287C179.811 39.9427 179.597 39.6904 179.597 39.4274C179.597 39.1643 179.811 38.9121 180.191 38.7261C180.571 38.54 181.087 38.4356 181.625 38.4356C182.163 38.4356 182.679 38.54 183.059 38.7261C183.439 38.9121 183.653 39.1643 183.653 39.4274ZM209.299 39.4274C209.299 39.6904 209.085 39.9427 208.705 40.1287C208.325 40.3147 207.809 40.4192 207.271 40.4192C206.733 40.4192 206.217 40.3147 205.837 40.1287C205.457 39.9427 205.243 39.6904 205.243 39.4274C205.243 39.1643 205.457 38.9121 205.837 38.7261C206.217 38.54 206.733 38.4356 207.271 38.4356C207.809 38.4356 208.325 38.54 208.705 38.7261C209.085 38.9121 209.299 39.1643 209.299 39.4274ZM234.942 39.4274C234.942 39.6904 234.728 39.9427 234.348 40.1286C233.967 40.3146 233.451 40.419 232.914 40.4189C232.376 40.4188 231.86 40.3142 231.48 40.1282C231.1 39.9421 230.886 39.6898 230.886 39.4267C230.886 39.1637 231.1 38.9114 231.48 38.7254C231.861 38.5394 232.376 38.4349 232.914 38.4349C233.452 38.4349 233.968 38.5394 234.348 38.7254C234.729 38.9114 234.942 39.1643 234.942 39.4274ZM260.587 39.4274C260.587 39.6904 260.373 39.9427 259.993 40.1287C259.613 40.3147 259.097 40.4192 258.559 40.4192C258.021 40.4192 257.505 40.3147 257.125 40.1287C256.745 39.9427 256.531 39.6904 256.531 39.4274C256.531 39.1643 256.745 38.9121 257.125 38.7261C257.505 38.54 258.021 38.4356 258.559 38.4356C259.097 38.4356 259.613 38.54 259.993 38.7261C260.373 38.9121 260.587 39.1643 260.587 39.4274ZM286.232 39.4274C286.232 39.6904 286.018 39.9427 285.638 40.1287C285.257 40.3147 284.741 40.4192 284.204 40.4192C283.666 40.4192 283.15 40.3147 282.77 40.1287C282.389 39.9427 282.176 39.6904 282.176 39.4274C282.176 39.1643 282.389 38.9121 282.77 38.7261C283.15 38.54 283.666 38.4356 284.204 38.4356C284.741 38.4356 285.257 38.54 285.638 38.7261C286.018 38.9121 286.232 39.1643 286.232 39.4274ZM4.14316 52.1374C4.14316 52.4007 3.92936 52.6531 3.54878 52.8392C3.16821 53.0254 2.65203 53.1299 2.11382 53.1299C1.5756 53.1299 1.05943 53.0254 0.678854 52.8392C0.298278 52.6531 0.0844728 52.4007 0.0844728 52.1374C0.0844728 51.8742 0.298278 51.6218 0.678854 51.4356C1.05943 51.2495 1.5756 51.1449 2.11382 51.1449C2.65203 51.1449 3.16821 51.2495 3.54878 51.4356C3.92936 51.6218 4.14316 51.8742 4.14316 52.1374ZM29.7865 52.1374C29.7865 52.4005 29.5728 52.6528 29.1925 52.8388C28.8121 53.0248 28.2963 53.1293 27.7585 53.1293C27.2206 53.1293 26.7048 53.0248 26.3245 52.8388C25.9441 52.6528 25.7305 52.4005 25.7305 52.1374C25.7305 51.8744 25.9441 51.6221 26.3245 51.4361C26.7048 51.2501 27.2206 51.1456 27.7585 51.1456C28.2963 51.1456 28.8121 51.2501 29.1925 51.4361C29.5728 51.6221 29.7865 51.8744 29.7865 52.1374ZM55.4311 52.1374C55.4311 52.4005 55.2174 52.6528 54.8371 52.8388C54.4568 53.0248 53.941 53.1293 53.4031 53.1293C52.8653 53.1293 52.3494 53.0248 51.9691 52.8388C51.5888 52.6528 51.3751 52.4005 51.3751 52.1374C51.3751 51.8744 51.5888 51.6221 51.9691 51.4361C52.3494 51.2501 52.8653 51.1456 53.4031 51.1456C53.941 51.1456 54.4568 51.2501 54.8371 51.4361C55.2174 51.6221 55.4311 51.8744 55.4311 52.1374ZM81.0758 52.1374C81.0758 52.4005 80.8621 52.6528 80.4818 52.8388C80.1014 53.0248 79.5856 53.1293 79.0478 53.1293C78.5099 53.1293 77.9941 53.0248 77.6138 52.8388C77.2334 52.6528 77.0198 52.4005 77.0198 52.1374C77.0198 51.8744 77.2334 51.6221 77.6138 51.4361C77.9941 51.2501 78.5099 51.1456 79.0478 51.1456C79.5856 51.1456 80.1014 51.2501 80.4818 51.4361C80.8621 51.6221 81.0758 51.8744 81.0758 52.1374ZM106.72 52.1374C106.72 52.4006 106.507 52.6529 106.126 52.839C105.746 53.0251 105.23 53.1296 104.692 53.1296C104.154 53.1296 103.638 53.0251 103.257 52.839C102.877 52.6529 102.663 52.4006 102.663 52.1374C102.663 51.8743 102.877 51.6219 103.257 51.4359C103.638 51.2498 104.154 51.1453 104.692 51.1453C105.23 51.1453 105.746 51.2498 106.126 51.4359C106.507 51.6219 106.72 51.8743 106.72 52.1374ZM132.365 52.1374C132.365 52.2677 132.313 52.3968 132.211 52.5171C132.109 52.6375 131.959 52.7469 131.771 52.839C131.582 52.9311 131.359 53.0042 131.113 53.0541C130.867 53.104 130.603 53.1296 130.336 53.1296C130.07 53.1296 129.806 53.104 129.56 53.0541C129.314 53.0042 129.09 52.9311 128.902 52.839C128.714 52.7469 128.564 52.6375 128.462 52.5171C128.36 52.3968 128.308 52.2677 128.308 52.1374C128.308 51.8744 128.521 51.6221 128.902 51.4361C129.282 51.2501 129.798 51.1456 130.336 51.1456C130.874 51.1456 131.389 51.2501 131.77 51.4361C132.15 51.6221 132.364 51.8744 132.364 52.1374H132.365ZM158.01 52.1374C158.01 52.4005 157.796 52.6528 157.416 52.8388C157.035 53.0248 156.52 53.1293 155.982 53.1293C155.444 53.1293 154.928 53.0248 154.548 52.8388C154.167 52.6528 153.954 52.4005 153.954 52.1374C153.954 51.8744 154.167 51.6221 154.548 51.4361C154.928 51.2501 155.444 51.1456 155.982 51.1456C156.52 51.1456 157.035 51.2501 157.416 51.4361C157.796 51.6221 158.01 51.8744 158.01 52.1374ZM183.653 52.1374C183.653 52.4005 183.439 52.6528 183.059 52.8388C182.679 53.0248 182.163 53.1293 181.625 53.1293C181.087 53.1293 180.571 53.0248 180.191 52.8388C179.811 52.6528 179.597 52.4005 179.597 52.1374C179.597 51.8744 179.811 51.6221 180.191 51.4361C180.571 51.2501 181.087 51.1456 181.625 51.1456C182.163 51.1456 182.679 51.2501 183.059 51.4361C183.439 51.6221 183.653 51.8744 183.653 52.1374ZM209.299 52.1374C209.299 52.4005 209.085 52.6528 208.705 52.8388C208.325 53.0248 207.809 53.1293 207.271 53.1293C206.733 53.1293 206.217 53.0248 205.837 52.8388C205.457 52.6528 205.243 52.4005 205.243 52.1374C205.243 51.8744 205.457 51.6221 205.837 51.4361C206.217 51.2501 206.733 51.1456 207.271 51.1456C207.809 51.1456 208.325 51.2501 208.705 51.4361C209.085 51.6221 209.299 51.8744 209.299 52.1374ZM234.942 52.1374C234.942 52.4005 234.729 52.6528 234.348 52.8388C233.968 53.0248 233.452 53.1293 232.914 53.1293C232.376 53.1293 231.861 53.0248 231.48 52.8388C231.1 52.6528 230.886 52.4005 230.886 52.1374C230.886 51.8744 231.1 51.6221 231.48 51.4361C231.861 51.2501 232.376 51.1456 232.914 51.1456C233.452 51.1456 233.968 51.2501 234.348 51.4361C234.729 51.6221 234.942 51.8744 234.942 52.1374ZM260.587 52.1374C260.587 52.4005 260.373 52.6528 259.993 52.8388C259.613 53.0248 259.097 53.1293 258.559 53.1293C258.021 53.1293 257.505 53.0248 257.125 52.8388C256.745 52.6528 256.531 52.4005 256.531 52.1374C256.531 51.8744 256.745 51.6221 257.125 51.4361C257.505 51.2501 258.021 51.1456 258.559 51.1456C259.097 51.1456 259.613 51.2501 259.993 51.4361C260.373 51.6221 260.587 51.8744 260.587 52.1374ZM286.232 52.1374C286.232 52.4005 286.018 52.6528 285.638 52.8388C285.257 53.0248 284.741 53.1293 284.204 53.1293C283.666 53.1293 283.15 53.0248 282.77 52.8388C282.389 52.6528 282.176 52.4005 282.176 52.1374C282.176 51.8744 282.389 51.6221 282.77 51.4361C283.15 51.2501 283.666 51.1456 284.204 51.1456C284.741 51.1456 285.257 51.2501 285.638 51.4361C286.018 51.6221 286.232 51.8744 286.232 52.1374ZM4.14316 64.8488C4.14298 65.112 3.92901 65.3645 3.5483 65.5505C3.1676 65.7366 2.65136 65.8411 2.11314 65.841C1.57493 65.8409 1.05883 65.7363 0.678376 65.5501C0.297927 65.3639 0.0842935 65.1114 0.0844728 64.8482C0.0846521 64.5849 0.298629 64.3325 0.679332 64.1465C1.06003 63.9604 1.57628 63.8559 2.11449 63.856C2.65271 63.8561 3.16881 63.9607 3.54926 64.1469C3.92971 64.3331 4.14334 64.5856 4.14316 64.8488ZM29.7865 64.8488C29.7864 64.9791 29.7338 65.108 29.6318 65.2284C29.5298 65.3487 29.3804 65.458 29.192 65.5501C29.0036 65.6421 28.78 65.7152 28.5339 65.765C28.2878 65.8148 28.0241 65.8404 27.7578 65.8403C27.4915 65.8403 27.2278 65.8146 26.9818 65.7647C26.7357 65.7148 26.5122 65.6417 26.324 65.5496C26.1357 65.4575 25.9864 65.3481 25.8846 65.2277C25.7828 65.1074 25.7304 64.9784 25.7305 64.8482C25.7307 64.5851 25.9445 64.3329 26.3249 64.1469C26.7054 63.961 27.2213 63.8566 27.7591 63.8567C28.297 63.8567 28.8128 63.9613 29.193 64.1474C29.5731 64.3335 29.7866 64.5858 29.7865 64.8488ZM55.4311 64.8488C55.4311 65.1119 55.2174 65.3642 54.8371 65.5502C54.4568 65.7362 53.941 65.8407 53.4031 65.8407C52.8653 65.8407 52.3494 65.7362 51.9691 65.5502C51.5888 65.3642 51.3751 65.1119 51.3751 64.8488C51.3751 64.5858 51.5888 64.3335 51.9691 64.1475C52.3494 63.9615 52.8653 63.857 53.4031 63.857C53.941 63.857 54.4568 63.9615 54.8371 64.1475C55.2174 64.3335 55.4311 64.5858 55.4311 64.8488ZM81.0758 64.8488C81.0758 65.1119 80.8621 65.3642 80.4818 65.5502C80.1014 65.7362 79.5856 65.8407 79.0478 65.8407C78.5099 65.8407 77.9941 65.7362 77.6138 65.5502C77.2334 65.3642 77.0198 65.1119 77.0198 64.8488C77.0198 64.5858 77.2334 64.3335 77.6138 64.1475C77.9941 63.9615 78.5099 63.857 79.0478 63.857C79.5856 63.857 80.1014 63.9615 80.4818 64.1475C80.8621 64.3335 81.0758 64.5858 81.0758 64.8488ZM106.72 64.8488C106.72 64.9791 106.668 65.1081 106.566 65.2285C106.464 65.3488 106.314 65.4582 106.126 65.5503C105.937 65.6424 105.714 65.7154 105.467 65.7653C105.221 65.8151 104.957 65.8407 104.691 65.8407C104.425 65.8406 104.161 65.8149 103.915 65.765C103.669 65.7151 103.445 65.642 103.257 65.5498C103.068 65.4577 102.919 65.3483 102.817 65.2279C102.715 65.1075 102.663 64.9785 102.663 64.8482C102.663 64.585 102.877 64.3327 103.258 64.1467C103.638 63.9607 104.154 63.8562 104.692 63.8563C105.23 63.8564 105.746 63.961 106.127 64.1472C106.507 64.3333 106.721 64.5857 106.72 64.8488ZM132.365 64.8488C132.365 65.112 132.151 65.3643 131.77 65.5503C131.39 65.7363 130.874 65.8407 130.336 65.8407C129.798 65.8406 129.282 65.736 128.901 65.5498C128.521 65.3637 128.308 65.1113 128.308 64.8482C128.308 64.5851 128.522 64.3329 128.902 64.1469C129.283 63.961 129.799 63.8566 130.336 63.8567C130.874 63.8567 131.39 63.9613 131.77 64.1474C132.15 64.3335 132.364 64.5858 132.364 64.8488H132.365ZM158.01 64.8488C158.01 65.1119 157.796 65.3642 157.416 65.5502C157.035 65.7362 156.52 65.8407 155.982 65.8407C155.444 65.8407 154.928 65.7362 154.548 65.5502C154.167 65.3642 153.954 65.1119 153.954 64.8488C153.954 64.5858 154.167 64.3335 154.548 64.1475C154.928 63.9615 155.444 63.857 155.982 63.857C156.52 63.857 157.035 63.9615 157.416 64.1475C157.796 64.3335 158.01 64.5858 158.01 64.8488ZM183.653 64.8488C183.653 65.1119 183.439 65.3642 183.059 65.5502C182.679 65.7362 182.163 65.8407 181.625 65.8407C181.087 65.8407 180.571 65.7362 180.191 65.5502C179.811 65.3642 179.597 65.1119 179.597 64.8488C179.597 64.5858 179.811 64.3335 180.191 64.1475C180.571 63.9615 181.087 63.857 181.625 63.857C182.163 63.857 182.679 63.9615 183.059 64.1475C183.439 64.3335 183.653 64.5858 183.653 64.8488ZM209.299 64.8488C209.299 65.1119 209.085 65.3642 208.705 65.5502C208.325 65.7362 207.809 65.8407 207.271 65.8407C206.733 65.8407 206.217 65.7362 205.837 65.5502C205.457 65.3642 205.243 65.1119 205.243 64.8488C205.243 64.5858 205.457 64.3335 205.837 64.1475C206.217 63.9615 206.733 63.857 207.271 63.857C207.809 63.857 208.325 63.9615 208.705 64.1475C209.085 64.3335 209.299 64.5858 209.299 64.8488ZM234.942 64.8488C234.942 64.9791 234.89 65.108 234.788 65.2284C234.686 65.3487 234.536 65.458 234.348 65.5501C234.159 65.6421 233.936 65.7152 233.69 65.765C233.444 65.8148 233.18 65.8404 232.914 65.8403C232.647 65.8403 232.384 65.8146 232.138 65.7647C231.892 65.7148 231.668 65.6417 231.48 65.5496C231.292 65.4575 231.142 65.3481 231.04 65.2277C230.939 65.1074 230.886 64.9784 230.886 64.8482C230.886 64.5851 231.1 64.3329 231.481 64.1469C231.861 63.961 232.377 63.8566 232.915 63.8567C233.453 63.8567 233.969 63.9613 234.349 64.1474C234.729 64.3335 234.942 64.5858 234.942 64.8488ZM260.587 64.8488C260.587 65.1119 260.373 65.3642 259.993 65.5502C259.613 65.7362 259.097 65.8407 258.559 65.8407C258.021 65.8407 257.505 65.7362 257.125 65.5502C256.745 65.3642 256.531 65.1119 256.531 64.8488C256.531 64.5858 256.745 64.3335 257.125 64.1475C257.505 63.9615 258.021 63.857 258.559 63.857C259.097 63.857 259.613 63.9615 259.993 64.1475C260.373 64.3335 260.587 64.5858 260.587 64.8488ZM286.232 64.8488C286.232 65.1119 286.018 65.3642 285.638 65.5502C285.257 65.7362 284.741 65.8407 284.204 65.8407C283.666 65.8407 283.15 65.7362 282.77 65.5502C282.389 65.3642 282.176 65.1119 282.176 64.8488C282.176 64.5858 282.389 64.3335 282.77 64.1475C283.15 63.9615 283.666 63.857 284.204 63.857C284.741 63.857 285.257 63.9615 285.638 64.1475C286.018 64.3335 286.232 64.5858 286.232 64.8488ZM4.14316 77.5595C4.14298 77.8228 3.92901 78.0752 3.5483 78.2612C3.1676 78.4473 2.65136 78.5518 2.11314 78.5517C1.57493 78.5516 1.05883 78.447 0.678376 78.2608C0.297927 78.0746 0.0842935 77.8221 0.0844728 77.5589C0.0844728 77.2957 0.298278 77.0432 0.678854 76.8571C1.05943 76.671 1.5756 76.5664 2.11382 76.5664C2.65203 76.5664 3.16821 76.671 3.54878 76.8571C3.92936 77.0432 4.14316 77.2963 4.14316 77.5595ZM29.7865 77.5595C29.7864 77.6898 29.7338 77.8188 29.6318 77.9391C29.5298 78.0594 29.3804 78.1687 29.192 78.2608C29.0036 78.3529 28.78 78.4259 28.5339 78.4757C28.2878 78.5255 28.0241 78.5511 27.7578 78.551C27.4915 78.551 27.2278 78.5253 26.9818 78.4754C26.7357 78.4255 26.5122 78.3524 26.324 78.2603C26.1357 78.1682 25.9864 78.0588 25.8846 77.9385C25.7828 77.8181 25.7304 77.6891 25.7305 77.5589C25.7305 77.2958 25.9441 77.0435 26.3245 76.8575C26.7048 76.6715 27.2206 76.567 27.7585 76.567C28.2963 76.567 28.8121 76.6715 29.1925 76.8575C29.5728 77.0435 29.7865 77.2965 29.7865 77.5595ZM55.4311 77.5595C55.4311 77.8226 55.2174 78.0749 54.8371 78.2609C54.4568 78.4469 53.941 78.5514 53.4031 78.5514C52.8653 78.5514 52.3494 78.4469 51.9691 78.2609C51.5888 78.0749 51.3751 77.8226 51.3751 77.5595C51.3751 77.2965 51.5888 77.0442 51.9691 76.8582C52.3494 76.6722 52.8653 76.5677 53.4031 76.5677C53.941 76.5677 54.4568 76.6722 54.8371 76.8582C55.2174 77.0442 55.4311 77.2965 55.4311 77.5595ZM81.0758 77.5595C81.0758 77.8226 80.8621 78.0749 80.4818 78.2609C80.1014 78.4469 79.5856 78.5514 79.0478 78.5514C78.5099 78.5514 77.9941 78.4469 77.6138 78.2609C77.2334 78.0749 77.0198 77.8226 77.0198 77.5595C77.0198 77.2965 77.2334 77.0442 77.6138 76.8582C77.9941 76.6722 78.5099 76.5677 79.0478 76.5677C79.5856 76.5677 80.1014 76.6722 80.4818 76.8582C80.8621 77.0442 81.0758 77.2965 81.0758 77.5595ZM106.72 77.5595C106.72 77.6898 106.668 77.8188 106.566 77.9392C106.464 78.0596 106.314 78.1689 106.126 78.261C105.937 78.3531 105.714 78.4262 105.467 78.476C105.221 78.5258 104.957 78.5514 104.691 78.5514C104.425 78.5513 104.161 78.5256 103.915 78.4757C103.669 78.4258 103.445 78.3527 103.257 78.2605C103.068 78.1684 102.919 78.059 102.817 77.9386C102.715 77.8182 102.663 77.6892 102.663 77.5589C102.663 77.2957 102.877 77.0434 103.257 76.8573C103.638 76.6712 104.154 76.5667 104.692 76.5667C105.23 76.5667 105.746 76.6712 106.126 76.8573C106.507 77.0434 106.72 77.2964 106.72 77.5595ZM132.365 77.5595C132.365 77.6898 132.312 77.8188 132.21 77.9392C132.108 78.0596 131.959 78.1689 131.77 78.261C131.582 78.3531 131.358 78.4262 131.112 78.476C130.866 78.5258 130.602 78.5514 130.336 78.5514C130.069 78.5513 129.806 78.5256 129.559 78.4757C129.313 78.4258 129.09 78.3527 128.901 78.2605C128.713 78.1684 128.564 78.059 128.462 77.9386C128.36 77.8182 128.308 77.6892 128.308 77.5589C128.308 77.2958 128.521 77.0435 128.902 76.8575C129.282 76.6715 129.798 76.567 130.336 76.567C130.874 76.567 131.389 76.6715 131.77 76.8575C132.15 77.0435 132.364 77.2958 132.364 77.5589L132.365 77.5595ZM158.01 77.5595C158.01 77.8226 157.796 78.0749 157.416 78.2609C157.035 78.4469 156.52 78.5514 155.982 78.5514C155.444 78.5514 154.928 78.4469 154.548 78.2609C154.167 78.0749 153.954 77.8226 153.954 77.5595C153.954 77.2965 154.167 77.0442 154.548 76.8582C154.928 76.6722 155.444 76.5677 155.982 76.5677C156.52 76.5677 157.035 76.6722 157.416 76.8582C157.796 77.0442 158.01 77.2965 158.01 77.5595ZM183.653 77.5595C183.653 77.8226 183.439 78.0749 183.059 78.2609C182.679 78.4469 182.163 78.5514 181.625 78.5514C181.087 78.5514 180.571 78.4469 180.191 78.2609C179.811 78.0749 179.597 77.8226 179.597 77.5595C179.597 77.2965 179.811 77.0442 180.191 76.8582C180.571 76.6722 181.087 76.5677 181.625 76.5677C182.163 76.5677 182.679 76.6722 183.059 76.8582C183.439 77.0442 183.653 77.2965 183.653 77.5595ZM209.299 77.5595C209.299 77.8226 209.085 78.0749 208.705 78.2609C208.325 78.4469 207.809 78.5514 207.271 78.5514C206.733 78.5514 206.217 78.4469 205.837 78.2609C205.457 78.0749 205.243 77.8226 205.243 77.5595C205.243 77.2965 205.457 77.0442 205.837 76.8582C206.217 76.6722 206.733 76.5677 207.271 76.5677C207.809 76.5677 208.325 76.6722 208.705 76.8582C209.085 77.0442 209.299 77.2965 209.299 77.5595ZM234.942 77.5595C234.942 77.8226 234.728 78.0748 234.348 78.2608C233.967 78.4467 233.451 78.5511 232.914 78.551C232.376 78.551 231.86 78.4464 231.48 78.2603C231.1 78.0742 230.886 77.8219 230.886 77.5589C230.886 77.2958 231.1 77.0435 231.48 76.8575C231.861 76.6715 232.376 76.567 232.914 76.567C233.452 76.567 233.968 76.6715 234.348 76.8575C234.729 77.0435 234.942 77.2965 234.942 77.5595ZM260.587 77.5595C260.587 77.8226 260.373 78.0749 259.993 78.2609C259.613 78.4469 259.097 78.5514 258.559 78.5514C258.021 78.5514 257.505 78.4469 257.125 78.2609C256.745 78.0749 256.531 77.8226 256.531 77.5595C256.531 77.2965 256.745 77.0442 257.125 76.8582C257.505 76.6722 258.021 76.5677 258.559 76.5677C259.097 76.5677 259.613 76.6722 259.993 76.8582C260.373 77.0442 260.587 77.2965 260.587 77.5595ZM286.232 77.5595C286.232 77.8226 286.018 78.0749 285.638 78.2609C285.257 78.4469 284.741 78.5514 284.204 78.5514C283.666 78.5514 283.15 78.4469 282.77 78.2609C282.389 78.0749 282.176 77.8226 282.176 77.5595C282.176 77.2965 282.389 77.0442 282.77 76.8582C283.15 76.6722 283.666 76.5677 284.204 76.5677C284.741 76.5677 285.257 76.6722 285.638 76.8582C286.018 77.0442 286.232 77.2965 286.232 77.5595ZM4.14316 90.2696C4.14316 90.5327 3.9295 90.7849 3.54918 90.9709C3.16885 91.1569 2.65303 91.2614 2.11517 91.2614C1.57731 91.2614 1.06148 91.1569 0.681162 90.9709C0.30084 90.7849 0.0871767 90.5327 0.0871767 90.2696C0.0871767 90.0066 0.30084 89.7543 0.681162 89.5683C1.06148 89.3823 1.57731 89.2778 2.11517 89.2778C2.65303 89.2778 3.16885 89.3823 3.54918 89.5683C3.9295 89.7543 4.14316 90.0066 4.14316 90.2696ZM29.7865 90.2696C29.7865 90.5327 29.5728 90.7849 29.1925 90.9709C28.8121 91.1569 28.2963 91.2614 27.7585 91.2614C27.2206 91.2614 26.7048 91.1569 26.3245 90.9709C25.9441 90.7849 25.7305 90.5327 25.7305 90.2696C25.7305 90.0066 25.9441 89.7543 26.3245 89.5683C26.7048 89.3823 27.2206 89.2778 27.7585 89.2778C28.2963 89.2778 28.8121 89.3823 29.1925 89.5683C29.5728 89.7543 29.7865 90.0066 29.7865 90.2696ZM55.4311 90.2696C55.4383 90.402 55.3912 90.5337 55.2926 90.657C55.194 90.7803 55.046 90.8927 54.8572 90.9876C54.6684 91.0825 54.4426 91.1579 54.1932 91.2095C53.9439 91.261 53.6759 91.2876 53.4052 91.2877C53.1345 91.2878 52.8664 91.2614 52.6169 91.21C52.3674 91.1586 52.1414 91.0833 51.9524 90.9886C51.7633 90.8938 51.6149 90.7815 51.516 90.6582C51.4171 90.535 51.3697 90.4033 51.3765 90.2709C51.3898 90.0124 51.609 89.7666 51.9875 89.586C52.3659 89.4054 52.8737 89.3042 53.4025 89.304C53.9313 89.3038 54.4393 89.4047 54.8182 89.5851C55.1972 89.7654 55.4171 90.0111 55.4311 90.2696ZM81.0758 90.2696C81.0829 90.402 81.0358 90.5337 80.9373 90.657C80.8387 90.7803 80.6906 90.8927 80.5018 90.9876C80.313 91.0825 80.0872 91.1579 79.8379 91.2095C79.5885 91.261 79.3205 91.2876 79.0498 91.2877C78.7791 91.2878 78.5111 91.2614 78.2616 91.21C78.012 91.1586 77.7861 91.0833 77.597 90.9886C77.4079 90.8938 77.2596 90.7815 77.1607 90.6582C77.0618 90.535 77.0143 90.4033 77.0211 90.2709C77.0344 90.0124 77.2537 89.7666 77.6321 89.586C78.0106 89.4054 78.5183 89.3042 79.0471 89.304C79.5759 89.3038 80.0839 89.4047 80.4629 89.5851C80.8418 89.7654 81.0618 90.0111 81.0758 90.2696ZM106.72 90.2696C106.72 90.5327 106.507 90.7849 106.126 90.9709C105.746 91.1569 105.23 91.2614 104.692 91.2614C104.155 91.2614 103.639 91.1569 103.258 90.9709C102.878 90.7849 102.664 90.5327 102.664 90.2696C102.664 90.0066 102.878 89.7543 103.258 89.5683C103.639 89.3823 104.155 89.2778 104.692 89.2778C105.23 89.2778 105.746 89.3823 106.126 89.5683C106.507 89.7543 106.72 90.0066 106.72 90.2696ZM132.365 90.2696C132.365 90.5327 132.151 90.7849 131.771 90.9709C131.391 91.1569 130.875 91.2614 130.337 91.2614C129.799 91.2614 129.283 91.1569 128.903 90.9709C128.523 90.7849 128.309 90.5327 128.309 90.2696C128.309 90.0066 128.523 89.7543 128.903 89.5683C129.283 89.3823 129.799 89.2778 130.337 89.2778C130.875 89.2778 131.391 89.3823 131.771 89.5683C132.151 89.7543 132.365 90.0066 132.365 90.2696ZM158.01 90.2696C158.017 90.402 157.97 90.5337 157.871 90.657C157.773 90.7803 157.625 90.8927 157.436 90.9876C157.247 91.0825 157.021 91.1579 156.772 91.2095C156.522 91.261 156.254 91.2876 155.984 91.2877C155.713 91.2878 155.445 91.2614 155.196 91.21C154.946 91.1586 154.72 91.0833 154.531 90.9886C154.342 90.8938 154.194 90.7815 154.095 90.6582C153.996 90.535 153.948 90.4033 153.955 90.2709C153.968 90.0124 154.188 89.7666 154.566 89.586C154.945 89.4054 155.452 89.3042 155.981 89.304C156.51 89.3038 157.018 89.4047 157.397 89.5851C157.776 89.7654 157.996 90.0111 158.01 90.2696ZM183.653 90.2696C183.663 90.4028 183.618 90.5356 183.521 90.6602C183.424 90.7847 183.276 90.8984 183.087 90.9944C182.898 91.0904 182.672 91.1668 182.421 91.219C182.17 91.2713 181.9 91.2982 181.628 91.2983C181.355 91.2984 181.085 91.2716 180.835 91.2196C180.584 91.1675 180.357 91.0913 180.167 90.9954C179.978 90.8995 179.83 90.7859 179.733 90.6614C179.635 90.5369 179.59 90.4041 179.6 90.2709C179.619 90.0143 179.84 89.7712 180.218 89.5929C180.596 89.4146 181.1 89.3148 181.625 89.3146C182.15 89.3145 182.655 89.4139 183.033 89.592C183.411 89.7701 183.633 90.013 183.653 90.2696ZM209.299 90.2696C209.299 90.3998 209.247 90.5288 209.145 90.6492C209.043 90.7696 208.894 90.879 208.706 90.9711C208.518 91.0633 208.294 91.1364 208.048 91.1863C207.802 91.2363 207.539 91.262 207.272 91.2621C207.006 91.2622 206.742 91.2366 206.496 91.1868C206.25 91.1371 206.026 91.0641 205.838 90.9721C205.65 90.88 205.5 90.7707 205.398 90.6504C205.296 90.5301 205.243 90.4012 205.243 90.2709C205.243 90.0079 205.456 89.7555 205.836 89.5694C206.216 89.3833 206.732 89.2786 207.27 89.2784C207.808 89.2782 208.323 89.3826 208.704 89.5685C209.085 89.7543 209.299 90.0066 209.299 90.2696ZM234.942 90.2696C234.942 90.5327 234.729 90.7849 234.348 90.9709C233.968 91.1569 233.452 91.2614 232.914 91.2614C232.376 91.2614 231.861 91.1569 231.48 90.9709C231.1 90.7849 230.886 90.5327 230.886 90.2696C230.886 90.0066 231.1 89.7543 231.48 89.5683C231.861 89.3823 232.376 89.2778 232.914 89.2778C233.452 89.2778 233.968 89.3823 234.348 89.5683C234.729 89.7543 234.942 90.0066 234.942 90.2696ZM260.587 90.2696C260.597 90.4028 260.552 90.5356 260.455 90.6602C260.358 90.7847 260.21 90.8984 260.021 90.9944C259.832 91.0904 259.605 91.1668 259.355 91.219C259.104 91.2713 258.834 91.2982 258.562 91.2983C258.289 91.2984 258.019 91.2716 257.768 91.2196C257.518 91.1675 257.291 91.0913 257.101 90.9954C256.912 90.8995 256.764 90.7859 256.667 90.6614C256.569 90.5369 256.524 90.4041 256.534 90.2709C256.552 90.0143 256.774 89.7712 257.152 89.5929C257.53 89.4146 258.034 89.3148 258.559 89.3146C259.084 89.3145 259.589 89.4139 259.967 89.592C260.345 89.7701 260.567 90.013 260.587 90.2696ZM286.232 90.2696C286.239 90.402 286.192 90.5337 286.093 90.657C285.995 90.7803 285.846 90.8927 285.658 90.9876C285.469 91.0825 285.243 91.1579 284.994 91.2095C284.744 91.261 284.476 91.2876 284.206 91.2877C283.935 91.2878 283.667 91.2614 283.417 91.21C283.168 91.1586 282.942 91.0833 282.753 90.9886C282.564 90.8938 282.415 90.7815 282.316 90.6582C282.218 90.535 282.17 90.4033 282.177 90.2709C282.19 90.0124 282.409 89.7666 282.788 89.586C283.166 89.4054 283.674 89.3042 284.203 89.304C284.732 89.3038 285.24 89.4047 285.619 89.5851C285.998 89.7654 286.218 90.0111 286.232 90.2696ZM4.14316 102.981C4.14307 103.111 4.0905 103.24 3.98843 103.361C3.88636 103.481 3.73681 103.591 3.5483 103.683C3.3598 103.775 3.13604 103.848 2.88979 103.898C2.64354 103.948 2.37964 103.973 2.11314 103.973C1.84664 103.973 1.58277 103.947 1.3366 103.897C1.09042 103.848 0.866756 103.774 0.678376 103.682C0.489997 103.59 0.340591 103.481 0.238689 103.36C0.136787 103.24 0.084384 103.111 0.0844728 102.98C0.0844728 102.717 0.298278 102.465 0.678854 102.279C1.05943 102.092 1.5756 101.988 2.11382 101.988C2.65203 101.988 3.16821 102.092 3.54878 102.279C3.92936 102.465 4.14316 102.717 4.14316 102.98V102.981ZM29.7865 102.981C29.7864 103.111 29.7338 103.24 29.6318 103.361C29.5298 103.481 29.3804 103.59 29.192 103.682C29.0036 103.774 28.78 103.847 28.5339 103.897C28.2878 103.947 28.0241 103.973 27.7578 103.972C27.4915 103.972 27.2278 103.947 26.9818 103.897C26.7357 103.847 26.5122 103.774 26.324 103.682C26.1357 103.59 25.9864 103.48 25.8846 103.36C25.7828 103.24 25.7304 103.111 25.7305 102.98C25.7305 102.717 25.9441 102.465 26.3245 102.279C26.7048 102.093 27.2206 101.988 27.7585 101.988C28.2963 101.988 28.8121 102.093 29.1925 102.279C29.5728 102.465 29.7865 102.717 29.7865 102.98V102.981ZM55.4311 102.981C55.4311 103.244 55.2174 103.496 54.8371 103.682C54.4568 103.868 53.941 103.973 53.4031 103.973C52.8653 103.973 52.3494 103.868 51.9691 103.682C51.5888 103.496 51.3751 103.244 51.3751 102.981C51.3751 102.718 51.5888 102.466 51.9691 102.28C52.3494 102.094 52.8653 101.989 53.4031 101.989C53.941 101.989 54.4568 102.094 54.8371 102.28C55.2174 102.466 55.4311 102.718 55.4311 102.981ZM81.0758 102.981C81.0758 103.244 80.8621 103.496 80.4818 103.682C80.1014 103.868 79.5856 103.973 79.0478 103.973C78.5099 103.973 77.9941 103.868 77.6138 103.682C77.2334 103.496 77.0198 103.244 77.0198 102.981C77.0198 102.718 77.2334 102.466 77.6138 102.28C77.9941 102.094 78.5099 101.989 79.0478 101.989C79.5856 101.989 80.1014 102.094 80.4818 102.28C80.8621 102.466 81.0758 102.718 81.0758 102.981ZM106.72 102.981C106.72 103.111 106.668 103.24 106.566 103.361C106.464 103.481 106.314 103.59 106.126 103.682C105.937 103.775 105.714 103.848 105.467 103.897C105.221 103.947 104.957 103.973 104.691 103.973C104.425 103.973 104.161 103.947 103.915 103.897C103.669 103.847 103.445 103.774 103.257 103.682C103.068 103.59 102.919 103.48 102.817 103.36C102.715 103.24 102.663 103.111 102.663 102.98C102.663 102.717 102.877 102.465 103.257 102.279C103.638 102.093 104.154 101.988 104.692 101.988C105.23 101.988 105.746 102.093 106.126 102.279C106.507 102.465 106.72 102.717 106.72 102.98V102.981ZM132.365 102.981C132.365 103.111 132.312 103.24 132.21 103.361C132.108 103.481 131.959 103.59 131.77 103.682C131.582 103.775 131.358 103.848 131.112 103.897C130.866 103.947 130.602 103.973 130.336 103.973C130.069 103.973 129.806 103.947 129.559 103.897C129.313 103.847 129.09 103.774 128.901 103.682C128.713 103.59 128.564 103.48 128.462 103.36C128.36 103.24 128.308 103.111 128.308 102.98C128.308 102.717 128.521 102.465 128.902 102.279C129.282 102.093 129.798 101.988 130.336 101.988C130.874 101.988 131.389 102.093 131.77 102.279C132.15 102.465 132.364 102.717 132.364 102.98L132.365 102.981ZM158.01 102.981C158.01 103.244 157.796 103.496 157.416 103.682C157.035 103.868 156.52 103.973 155.982 103.973C155.444 103.973 154.928 103.868 154.548 103.682C154.167 103.496 153.954 103.244 153.954 102.981C153.954 102.718 154.167 102.466 154.548 102.28C154.928 102.094 155.444 101.989 155.982 101.989C156.52 101.989 157.035 102.094 157.416 102.28C157.796 102.466 158.01 102.718 158.01 102.981ZM183.653 102.981C183.653 103.244 183.439 103.496 183.059 103.682C182.679 103.868 182.163 103.973 181.625 103.973C181.087 103.973 180.571 103.868 180.191 103.682C179.811 103.496 179.597 103.244 179.597 102.981C179.597 102.718 179.811 102.466 180.191 102.28C180.571 102.094 181.087 101.989 181.625 101.989C182.163 101.989 182.679 102.094 183.059 102.28C183.439 102.466 183.653 102.718 183.653 102.981ZM209.299 102.981C209.299 103.244 209.085 103.496 208.705 103.682C208.325 103.868 207.809 103.973 207.271 103.973C206.733 103.973 206.217 103.868 205.837 103.682C205.457 103.496 205.243 103.244 205.243 102.981C205.243 102.718 205.457 102.466 205.837 102.28C206.217 102.094 206.733 101.989 207.271 101.989C207.809 101.989 208.325 102.094 208.705 102.28C209.085 102.466 209.299 102.718 209.299 102.981ZM234.942 102.981C234.942 103.244 234.728 103.496 234.348 103.682C233.967 103.868 233.451 103.973 232.914 103.972C232.376 103.972 231.86 103.868 231.48 103.682C231.1 103.496 230.886 103.243 230.886 102.98C230.886 102.717 231.1 102.465 231.48 102.279C231.861 102.093 232.376 101.988 232.914 101.988C233.452 101.988 233.968 102.093 234.348 102.279C234.729 102.465 234.942 102.717 234.942 102.98V102.981ZM260.587 102.981C260.587 103.244 260.373 103.496 259.993 103.682C259.613 103.868 259.097 103.973 258.559 103.973C258.021 103.973 257.505 103.868 257.125 103.682C256.745 103.496 256.531 103.244 256.531 102.981C256.531 102.718 256.745 102.466 257.125 102.28C257.505 102.094 258.021 101.989 258.559 101.989C259.097 101.989 259.613 102.094 259.993 102.28C260.373 102.466 260.587 102.718 260.587 102.981ZM286.232 102.981C286.232 103.244 286.018 103.496 285.638 103.682C285.257 103.868 284.741 103.973 284.204 103.973C283.666 103.973 283.15 103.868 282.77 103.682C282.389 103.496 282.176 103.244 282.176 102.981C282.176 102.718 282.389 102.466 282.77 102.28C283.15 102.094 283.666 101.989 284.204 101.989C284.741 101.989 285.257 102.094 285.638 102.28C286.018 102.466 286.232 102.718 286.232 102.981ZM4.14316 115.692C4.14316 115.955 3.9295 116.207 3.54918 116.393C3.16885 116.579 2.65303 116.684 2.11517 116.684C1.57731 116.684 1.06148 116.579 0.681162 116.393C0.30084 116.207 0.0871767 115.955 0.0871767 115.692C0.0871767 115.429 0.30084 115.176 0.681162 114.99C1.06148 114.804 1.57731 114.7 2.11517 114.7C2.65303 114.7 3.16885 114.804 3.54918 114.99C3.9295 115.176 4.14316 115.429 4.14316 115.692ZM29.7865 115.692C29.7865 115.955 29.5728 116.207 29.1925 116.393C28.8121 116.579 28.2963 116.684 27.7585 116.684C27.2206 116.684 26.7048 116.579 26.3245 116.393C25.9441 116.207 25.7305 115.955 25.7305 115.692C25.7305 115.429 25.9441 115.176 26.3245 114.99C26.7048 114.804 27.2206 114.7 27.7585 114.7C28.2963 114.7 28.8121 114.804 29.1925 114.99C29.5728 115.176 29.7865 115.429 29.7865 115.692ZM55.4311 115.692C55.4382 115.824 55.391 115.956 55.2924 116.079C55.1937 116.202 55.0456 116.315 54.8567 116.41C54.6678 116.504 54.442 116.58 54.1926 116.631C53.9432 116.683 53.6752 116.709 53.4045 116.709C53.1338 116.71 52.8658 116.683 52.6163 116.632C52.3668 116.58 52.1409 116.505 51.9519 116.41C51.7629 116.315 51.6146 116.203 51.5158 116.08C51.4169 115.956 51.3696 115.825 51.3765 115.692C51.3899 115.434 51.6094 115.188 51.9879 115.008C52.3665 114.827 52.8743 114.726 53.4031 114.726C53.9319 114.726 54.4399 114.827 54.8187 115.007C55.1975 115.188 55.4173 115.433 55.4311 115.692ZM81.0758 115.692C81.0828 115.824 81.0357 115.956 80.937 116.079C80.8383 116.202 80.6902 116.315 80.5013 116.41C80.3124 116.504 80.0866 116.58 79.8372 116.631C79.5878 116.683 79.3199 116.709 79.0491 116.709C78.7784 116.71 78.5104 116.683 78.2609 116.632C78.0114 116.58 77.7855 116.505 77.5965 116.41C77.4075 116.315 77.2592 116.203 77.1604 116.08C77.0616 115.956 77.0142 115.825 77.0211 115.692C77.0346 115.434 77.254 115.188 77.6326 115.008C78.0112 114.827 78.519 114.726 79.0478 114.726C79.5766 114.726 80.0845 114.827 80.4633 115.007C80.8422 115.188 81.0619 115.433 81.0758 115.692ZM106.72 115.692C106.72 115.955 106.507 116.207 106.126 116.393C105.746 116.579 105.23 116.684 104.692 116.684C104.155 116.684 103.639 116.579 103.258 116.393C102.878 116.207 102.664 115.955 102.664 115.692C102.664 115.429 102.878 115.176 103.258 114.99C103.639 114.804 104.155 114.7 104.692 114.7C105.23 114.7 105.746 114.804 106.126 114.99C106.507 115.176 106.72 115.429 106.72 115.692ZM132.365 115.692C132.365 115.955 132.151 116.207 131.771 116.393C131.391 116.579 130.875 116.684 130.337 116.684C129.799 116.684 129.283 116.579 128.903 116.393C128.523 116.207 128.309 115.955 128.309 115.692C128.309 115.429 128.523 115.176 128.903 114.99C129.283 114.804 129.799 114.7 130.337 114.7C130.875 114.7 131.391 114.804 131.771 114.99C132.151 115.176 132.365 115.429 132.365 115.692ZM158.01 115.692C158.017 115.824 157.97 115.956 157.871 116.079C157.772 116.202 157.624 116.315 157.435 116.41C157.246 116.504 157.021 116.58 156.771 116.631C156.522 116.683 156.254 116.709 155.983 116.709C155.712 116.71 155.444 116.683 155.195 116.632C154.945 116.58 154.719 116.505 154.53 116.41C154.341 116.315 154.193 116.203 154.094 116.08C153.996 115.956 153.948 115.825 153.955 115.692C153.969 115.434 154.188 115.188 154.567 115.008C154.945 114.827 155.453 114.726 155.982 114.726C156.511 114.726 157.018 114.827 157.397 115.007C157.776 115.188 157.996 115.433 158.01 115.692ZM183.653 115.692C183.663 115.825 183.618 115.958 183.521 116.082C183.424 116.207 183.276 116.32 183.087 116.416C182.898 116.512 182.671 116.589 182.42 116.641C182.169 116.693 181.9 116.72 181.627 116.72C181.354 116.72 181.085 116.693 180.834 116.641C180.583 116.589 180.356 116.513 180.167 116.417C179.978 116.321 179.83 116.207 179.732 116.083C179.635 115.958 179.59 115.826 179.6 115.692C179.619 115.436 179.84 115.193 180.218 115.014C180.596 114.836 181.101 114.736 181.626 114.736C182.151 114.736 182.655 114.836 183.033 115.014C183.412 115.192 183.634 115.435 183.653 115.692ZM209.299 115.692C209.299 115.822 209.247 115.951 209.145 116.071C209.043 116.192 208.894 116.301 208.705 116.393C208.517 116.485 208.294 116.558 208.048 116.608C207.802 116.658 207.538 116.684 207.272 116.684C207.005 116.684 206.742 116.658 206.496 116.608C206.249 116.559 206.026 116.486 205.837 116.394C205.649 116.302 205.5 116.192 205.398 116.072C205.296 115.952 205.243 115.823 205.243 115.692C205.243 115.429 205.456 115.177 205.837 114.991C206.217 114.805 206.732 114.7 207.27 114.7C207.808 114.7 208.324 114.805 208.705 114.99C209.085 115.176 209.299 115.429 209.299 115.692ZM234.942 115.692C234.942 115.955 234.729 116.207 234.348 116.393C233.968 116.579 233.452 116.684 232.914 116.684C232.376 116.684 231.861 116.579 231.48 116.393C231.1 116.207 230.886 115.955 230.886 115.692C230.886 115.429 231.1 115.176 231.48 114.99C231.861 114.804 232.376 114.7 232.914 114.7C233.452 114.7 233.968 114.804 234.348 114.99C234.729 115.176 234.942 115.429 234.942 115.692ZM260.587 115.692C260.597 115.825 260.552 115.958 260.455 116.082C260.357 116.207 260.21 116.32 260.021 116.416C259.832 116.512 259.605 116.589 259.354 116.641C259.103 116.693 258.834 116.72 258.561 116.72C258.288 116.72 258.019 116.693 257.768 116.641C257.517 116.589 257.29 116.513 257.101 116.417C256.912 116.321 256.764 116.207 256.666 116.083C256.569 115.958 256.524 115.826 256.534 115.692C256.553 115.436 256.774 115.193 257.152 115.014C257.53 114.836 258.035 114.736 258.56 114.736C259.085 114.736 259.589 114.836 259.967 115.014C260.346 115.192 260.568 115.435 260.587 115.692ZM286.232 115.692C286.239 115.824 286.191 115.956 286.093 116.079C285.994 116.202 285.846 116.315 285.657 116.41C285.468 116.504 285.242 116.58 284.993 116.631C284.744 116.683 284.476 116.709 284.205 116.709C283.934 116.71 283.666 116.683 283.417 116.632C283.167 116.58 282.941 116.505 282.752 116.41C282.563 116.315 282.415 116.203 282.316 116.08C282.217 115.956 282.17 115.825 282.177 115.692C282.19 115.434 282.41 115.188 282.788 115.008C283.167 114.827 283.675 114.726 284.204 114.726C284.732 114.726 285.24 114.827 285.619 115.007C285.998 115.188 286.218 115.433 286.232 115.692ZM4.14316 128.402C4.14316 128.666 3.92936 128.918 3.54878 129.104C3.16821 129.29 2.65203 129.395 2.11382 129.395C1.5756 129.395 1.05943 129.29 0.678854 129.104C0.298278 128.918 0.0844728 128.666 0.0844728 128.402C0.0844728 128.139 0.298278 127.887 0.678854 127.701C1.05943 127.514 1.5756 127.41 2.11382 127.41C2.65203 127.41 3.16821 127.514 3.54878 127.701C3.92936 127.887 4.14316 128.139 4.14316 128.402ZM29.7865 128.402C29.7865 128.665 29.5728 128.918 29.1925 129.104C28.8121 129.29 28.2963 129.394 27.7585 129.394C27.2206 129.394 26.7048 129.29 26.3245 129.104C25.9441 128.918 25.7305 128.665 25.7305 128.402C25.7305 128.139 25.9441 127.887 26.3245 127.701C26.7048 127.515 27.2206 127.411 27.7585 127.411C28.2963 127.411 28.8121 127.515 29.1925 127.701C29.5728 127.887 29.7865 128.139 29.7865 128.402ZM55.4311 128.402C55.4311 128.665 55.2174 128.918 54.8371 129.104C54.4568 129.29 53.941 129.394 53.4031 129.394C52.8653 129.394 52.3494 129.29 51.9691 129.104C51.5888 128.918 51.3751 128.665 51.3751 128.402C51.3751 128.139 51.5888 127.887 51.9691 127.701C52.3494 127.515 52.8653 127.411 53.4031 127.411C53.941 127.411 54.4568 127.515 54.8371 127.701C55.2174 127.887 55.4311 128.139 55.4311 128.402ZM81.0758 128.402C81.0758 128.665 80.8621 128.918 80.4818 129.104C80.1014 129.29 79.5856 129.394 79.0478 129.394C78.5099 129.394 77.9941 129.29 77.6138 129.104C77.2334 128.918 77.0198 128.665 77.0198 128.402C77.0198 128.139 77.2334 127.887 77.6138 127.701C77.9941 127.515 78.5099 127.411 79.0478 127.411C79.5856 127.411 80.1014 127.515 80.4818 127.701C80.8621 127.887 81.0758 128.139 81.0758 128.402ZM106.72 128.402C106.72 128.666 106.507 128.918 106.126 129.104C105.746 129.29 105.23 129.395 104.692 129.395C104.154 129.395 103.638 129.29 103.257 129.104C102.877 128.918 102.663 128.666 102.663 128.402C102.663 128.139 102.877 127.887 103.257 127.701C103.638 127.515 104.154 127.41 104.692 127.41C105.23 127.41 105.746 127.515 106.126 127.701C106.507 127.887 106.72 128.139 106.72 128.402ZM132.365 128.402C132.365 128.533 132.313 128.662 132.211 128.782C132.109 128.902 131.959 129.012 131.771 129.104C131.582 129.196 131.359 129.269 131.113 129.319C130.867 129.369 130.603 129.395 130.336 129.395C130.07 129.395 129.806 129.369 129.56 129.319C129.314 129.269 129.09 129.196 128.902 129.104C128.714 129.012 128.564 128.902 128.462 128.782C128.36 128.662 128.308 128.533 128.308 128.402C128.308 128.139 128.521 127.887 128.902 127.701C129.282 127.515 129.798 127.411 130.336 127.411C130.874 127.411 131.389 127.515 131.77 127.701C132.15 127.887 132.364 128.139 132.364 128.402H132.365ZM158.01 128.402C158.01 128.665 157.796 128.918 157.416 129.104C157.035 129.29 156.52 129.394 155.982 129.394C155.444 129.394 154.928 129.29 154.548 129.104C154.167 128.918 153.954 128.665 153.954 128.402C153.954 128.139 154.167 127.887 154.548 127.701C154.928 127.515 155.444 127.411 155.982 127.411C156.52 127.411 157.035 127.515 157.416 127.701C157.796 127.887 158.01 128.139 158.01 128.402ZM183.653 128.402C183.653 128.665 183.439 128.918 183.059 129.104C182.679 129.29 182.163 129.394 181.625 129.394C181.087 129.394 180.571 129.29 180.191 129.104C179.811 128.918 179.597 128.665 179.597 128.402C179.597 128.139 179.811 127.887 180.191 127.701C180.571 127.515 181.087 127.411 181.625 127.411C182.163 127.411 182.679 127.515 183.059 127.701C183.439 127.887 183.653 128.139 183.653 128.402ZM209.299 128.402C209.299 128.665 209.085 128.918 208.705 129.104C208.325 129.29 207.809 129.394 207.271 129.394C206.733 129.394 206.217 129.29 205.837 129.104C205.457 128.918 205.243 128.665 205.243 128.402C205.243 128.139 205.457 127.887 205.837 127.701C206.217 127.515 206.733 127.411 207.271 127.411C207.809 127.411 208.325 127.515 208.705 127.701C209.085 127.887 209.299 128.139 209.299 128.402ZM234.942 128.402C234.942 128.665 234.729 128.918 234.348 129.104C233.968 129.29 233.452 129.394 232.914 129.394C232.376 129.394 231.861 129.29 231.48 129.104C231.1 128.918 230.886 128.665 230.886 128.402C230.886 128.139 231.1 127.887 231.48 127.701C231.861 127.515 232.376 127.411 232.914 127.411C233.452 127.411 233.968 127.515 234.348 127.701C234.729 127.887 234.942 128.139 234.942 128.402ZM260.587 128.402C260.587 128.665 260.373 128.918 259.993 129.104C259.613 129.29 259.097 129.394 258.559 129.394C258.021 129.394 257.505 129.29 257.125 129.104C256.745 128.918 256.531 128.665 256.531 128.402C256.531 128.139 256.745 127.887 257.125 127.701C257.505 127.515 258.021 127.411 258.559 127.411C259.097 127.411 259.613 127.515 259.993 127.701C260.373 127.887 260.587 128.139 260.587 128.402ZM286.232 128.402C286.232 128.665 286.018 128.918 285.638 129.104C285.257 129.29 284.741 129.394 284.204 129.394C283.666 129.394 283.15 129.29 282.77 129.104C282.389 128.918 282.176 128.665 282.176 128.402C282.176 128.139 282.389 127.887 282.77 127.701C283.15 127.515 283.666 127.411 284.204 127.411C284.741 127.411 285.257 127.515 285.638 127.701C286.018 127.887 286.232 128.139 286.232 128.402Z" fill="#EC7699"/>
</svg>
