<svg width="235" height="259" viewBox="0 0 235 259" fill="none" xmlns="http://www.w3.org/2000/svg">
<path fill-rule="evenodd" clip-rule="evenodd" d="M119.242 2.9758C119.397 2.69433 119.484 2.31256 119.484 1.9145C119.484 1.51643 119.397 1.13467 119.242 0.853192C119.087 0.571716 118.877 0.413586 118.658 0.413586C118.439 0.413586 118.229 0.571716 118.074 0.853192C117.919 1.13467 117.832 1.51643 117.832 1.9145C117.832 2.31256 117.919 2.69433 118.074 2.9758C118.229 3.25728 118.439 3.41541 118.658 3.41541C118.877 3.41541 119.087 3.25728 119.242 2.9758ZM129.688 2.97651C129.843 2.69485 129.93 2.31283 129.93 1.9145H129.929C129.929 1.5163 129.842 1.13441 129.687 0.852838C129.532 0.571269 129.322 0.413086 129.103 0.413086C128.884 0.413086 128.674 0.571269 128.519 0.852838C128.364 1.13441 128.277 1.5163 128.277 1.9145C128.277 2.31283 128.364 2.69485 128.519 2.97651C128.674 3.25817 128.884 3.41641 129.103 3.41641C129.323 3.41641 129.533 3.25817 129.688 2.97651ZM140.132 2.97616C140.287 2.69459 140.374 2.3127 140.374 1.9145H140.374C140.374 1.51643 140.287 1.13467 140.132 0.853192C139.977 0.571716 139.767 0.413586 139.548 0.413586C139.329 0.413586 139.119 0.571716 138.964 0.853192C138.809 1.13467 138.722 1.51643 138.722 1.9145C138.722 2.3127 138.809 2.69459 138.964 2.97616C139.119 3.25773 139.329 3.41591 139.548 3.41591C139.767 3.41591 139.978 3.25773 140.132 2.97616ZM150.578 2.97616C150.733 2.69459 150.82 2.3127 150.82 1.9145H150.819C150.819 1.51643 150.732 1.13467 150.577 0.853192C150.422 0.571716 150.212 0.413586 149.993 0.413586C149.774 0.413586 149.564 0.571716 149.409 0.853192C149.254 1.13467 149.167 1.51643 149.167 1.9145C149.167 2.3127 149.254 2.69459 149.409 2.97616C149.564 3.25773 149.774 3.41591 149.993 3.41591C150.212 3.41591 150.423 3.25773 150.578 2.97616ZM161.022 2.9758C161.177 2.69433 161.264 2.31256 161.264 1.9145C161.264 1.51643 161.177 1.13467 161.022 0.853192C160.867 0.571716 160.657 0.413586 160.438 0.413586C160.219 0.413586 160.009 0.571716 159.854 0.853192C159.699 1.13467 159.612 1.51643 159.612 1.9145C159.612 2.31256 159.699 2.69433 159.854 2.9758C160.009 3.25728 160.219 3.41541 160.438 3.41541C160.657 3.41541 160.867 3.25728 161.022 2.9758ZM171.467 2.9758C171.622 2.69433 171.709 2.31256 171.709 1.9145C171.709 1.51643 171.622 1.13467 171.467 0.853192C171.312 0.571716 171.102 0.413586 170.883 0.413586C170.664 0.413586 170.454 0.571716 170.299 0.853192C170.144 1.13467 170.057 1.51643 170.057 1.9145C170.057 2.31256 170.144 2.69433 170.299 2.9758C170.454 3.25728 170.664 3.41541 170.883 3.41541C171.102 3.41541 171.312 3.25728 171.467 2.9758ZM181.912 2.9758C182.067 2.69433 182.154 2.31256 182.154 1.9145C182.154 1.51643 182.067 1.13467 181.912 0.853192C181.757 0.571716 181.547 0.413586 181.328 0.413586C181.109 0.413586 180.899 0.571716 180.744 0.853192C180.589 1.13467 180.502 1.51643 180.502 1.9145C180.502 2.31256 180.589 2.69433 180.744 2.9758C180.899 3.25728 181.109 3.41541 181.328 3.41541C181.547 3.41541 181.757 3.25728 181.912 2.9758ZM192.358 2.97616C192.513 2.69459 192.6 2.3127 192.6 1.9145H192.599C192.599 1.51643 192.512 1.13467 192.357 0.853192C192.203 0.571716 191.992 0.413586 191.773 0.413586C191.554 0.413586 191.344 0.571716 191.189 0.853192C191.034 1.13467 190.947 1.51643 190.947 1.9145C190.947 2.3127 191.034 2.69459 191.189 2.97616C191.344 3.25773 191.555 3.41591 191.774 3.41591C191.993 3.41591 192.203 3.25773 192.358 2.97616ZM202.803 2.9758C202.957 2.69433 203.044 2.31256 203.044 1.9145C203.044 1.51643 202.957 1.13467 202.803 0.853192C202.648 0.571716 202.438 0.413586 202.218 0.413586C201.999 0.413586 201.789 0.571716 201.634 0.853192C201.48 1.13467 201.392 1.51643 201.392 1.9145C201.392 2.31256 201.48 2.69433 201.634 2.9758C201.789 3.25728 201.999 3.41541 202.218 3.41541C202.438 3.41541 202.648 3.25728 202.803 2.9758ZM213.248 2.9758C213.403 2.69433 213.49 2.31256 213.49 1.9145C213.49 1.51643 213.403 1.13467 213.248 0.853192C213.093 0.571716 212.883 0.413586 212.664 0.413586C212.445 0.413586 212.234 0.571716 212.079 0.853192C211.925 1.13467 211.838 1.51643 211.838 1.9145C211.838 2.31256 211.925 2.69433 212.079 2.9758C212.234 3.25728 212.445 3.41541 212.664 3.41541C212.883 3.41541 213.093 3.25728 213.248 2.9758ZM223.693 2.97616C223.848 2.69459 223.935 2.3127 223.935 1.9145C223.935 1.5163 223.848 1.13441 223.693 0.852838C223.538 0.571269 223.328 0.413086 223.108 0.413086C222.889 0.413086 222.679 0.571269 222.524 0.852838C222.369 1.13441 222.282 1.5163 222.282 1.9145C222.282 2.3127 222.369 2.69459 222.524 2.97616C222.679 3.25773 222.889 3.41591 223.108 3.41591C223.328 3.41591 223.538 3.25773 223.693 2.97616ZM234.138 2.97616C234.293 2.69459 234.38 2.3127 234.38 1.9145C234.38 1.51643 234.292 1.13467 234.137 0.853192C233.982 0.571716 233.772 0.413586 233.553 0.413586C233.334 0.413586 233.124 0.571716 232.969 0.853192C232.814 1.13467 232.727 1.51643 232.727 1.9145C232.727 2.3127 232.814 2.69459 232.969 2.97616C233.124 3.25773 233.334 3.41591 233.553 3.41591C233.773 3.41591 233.983 3.25773 234.138 2.97616ZM119.242 22.2103C119.397 21.9289 119.484 21.5472 119.484 21.1492C119.484 20.9521 119.463 20.7569 119.422 20.5748C119.38 20.3926 119.319 20.2271 119.243 20.0877C119.166 19.9483 119.075 19.8377 118.975 19.7622C118.874 19.6867 118.767 19.6478 118.659 19.6478C118.55 19.6477 118.443 19.6865 118.342 19.7618C118.242 19.8372 118.151 19.9477 118.074 20.087C117.998 20.2263 117.937 20.3918 117.895 20.5738C117.854 20.7559 117.832 20.9511 117.832 21.1482C117.832 21.5462 117.919 21.9281 118.074 22.2096C118.229 22.4912 118.439 22.6495 118.658 22.6496C118.877 22.6497 119.087 22.4917 119.242 22.2103ZM129.688 22.211C129.843 21.9295 129.93 21.5475 129.93 21.1492H129.929C129.929 20.751 129.842 20.369 129.688 20.0874C129.533 19.8057 129.323 19.6474 129.103 19.6473C128.884 19.6471 128.674 19.8052 128.519 20.0867C128.364 20.3681 128.277 20.75 128.277 21.1482C128.277 21.5465 128.364 21.9286 128.519 22.2103C128.674 22.4921 128.884 22.6505 129.103 22.6506C129.322 22.6507 129.533 22.4926 129.688 22.211ZM140.311 21.7237C140.353 21.5416 140.374 21.3463 140.374 21.1492H140.374C140.374 20.7511 140.287 20.3693 140.132 20.0877C139.977 19.8062 139.767 19.6479 139.548 19.6478C139.329 19.6476 139.119 19.8056 138.964 20.087C138.809 20.3684 138.722 20.7501 138.722 21.1482C138.722 21.3453 138.743 21.5406 138.785 21.7228C138.826 21.905 138.887 22.0705 138.964 22.21C139.04 22.3494 139.132 22.4601 139.232 22.5356C139.332 22.6111 139.439 22.65 139.548 22.6501C139.656 22.6502 139.764 22.6114 139.864 22.536C139.964 22.4606 140.056 22.3501 140.132 22.2107C140.209 22.0713 140.27 21.9058 140.311 21.7237ZM150.757 21.7237C150.798 21.5416 150.82 21.3463 150.82 21.1492H150.819C150.819 20.9521 150.798 20.7569 150.756 20.5748C150.715 20.3926 150.654 20.2271 150.577 20.0877C150.501 19.9483 150.41 19.8377 150.309 19.7622C150.209 19.6867 150.102 19.6478 149.993 19.6478C149.885 19.6477 149.777 19.6865 149.677 19.7618C149.577 19.8372 149.486 19.9477 149.409 20.087C149.332 20.2263 149.272 20.3918 149.23 20.5738C149.188 20.7559 149.167 20.9511 149.167 21.1482C149.167 21.3453 149.188 21.5406 149.23 21.7228C149.271 21.905 149.332 22.0705 149.409 22.21C149.486 22.3494 149.577 22.4601 149.677 22.5356C149.777 22.6111 149.885 22.65 149.993 22.6501C150.102 22.6502 150.209 22.6114 150.309 22.536C150.41 22.4606 150.501 22.3501 150.577 22.2107C150.654 22.0713 150.715 21.9058 150.757 21.7237ZM161.022 22.2105C161.177 21.929 161.264 21.5472 161.264 21.1492C161.264 20.7511 161.177 20.3693 161.022 20.0879C160.867 19.8064 160.657 19.6483 160.438 19.6483C160.219 19.6483 160.009 19.8064 159.854 20.0879C159.699 20.3693 159.612 20.7511 159.612 21.1492C159.612 21.5472 159.699 21.929 159.854 22.2105C160.009 22.492 160.219 22.6501 160.438 22.6501C160.657 22.6501 160.867 22.492 161.022 22.2105ZM171.467 22.2105C171.622 21.929 171.709 21.5472 171.709 21.1492C171.709 20.7511 171.622 20.3693 171.467 20.0879C171.312 19.8064 171.102 19.6483 170.883 19.6483C170.664 19.6483 170.454 19.8064 170.299 20.0879C170.144 20.3693 170.057 20.7511 170.057 21.1492C170.057 21.5472 170.144 21.929 170.299 22.2105C170.454 22.492 170.664 22.6501 170.883 22.6501C171.102 22.6501 171.312 22.492 171.467 22.2105ZM181.912 22.2105C182.067 21.929 182.154 21.5472 182.154 21.1492C182.154 20.7511 182.067 20.3693 181.912 20.0879C181.757 19.8064 181.547 19.6483 181.328 19.6483C181.109 19.6483 180.899 19.8064 180.744 20.0879C180.589 20.3693 180.502 20.7511 180.502 21.1492C180.502 21.5472 180.589 21.929 180.744 22.2105C180.899 22.492 181.109 22.6501 181.328 22.6501C181.547 22.6501 181.757 22.492 181.912 22.2105ZM192.537 21.7237C192.579 21.5416 192.6 21.3463 192.6 21.1492H192.599C192.599 20.9521 192.578 20.7569 192.537 20.5748C192.495 20.3926 192.434 20.2271 192.358 20.0877C192.281 19.9483 192.19 19.8377 192.09 19.7622C191.99 19.6867 191.882 19.6478 191.774 19.6478C191.665 19.6477 191.558 19.6865 191.458 19.7618C191.357 19.8372 191.266 19.9477 191.189 20.087C191.113 20.2263 191.052 20.3918 191.01 20.5738C190.969 20.7559 190.947 20.9511 190.947 21.1482C190.947 21.3453 190.969 21.5406 191.01 21.7228C191.052 21.905 191.113 22.0705 191.189 22.21C191.266 22.3494 191.357 22.4601 191.457 22.5356C191.557 22.6111 191.665 22.65 191.773 22.6501C191.882 22.6502 191.989 22.6114 192.09 22.536C192.19 22.4606 192.281 22.3501 192.358 22.2107C192.434 22.0713 192.495 21.9058 192.537 21.7237ZM202.982 21.7235C203.023 21.5414 203.044 21.3463 203.044 21.1492C203.045 20.7511 202.958 20.3693 202.803 20.0877C202.648 19.8062 202.438 19.6479 202.219 19.6478C202 19.6476 201.79 19.8056 201.635 20.087C201.48 20.3684 201.393 20.7501 201.392 21.1482C201.392 21.3453 201.414 21.5405 201.455 21.7226C201.497 21.9047 201.558 22.0702 201.634 22.2096C201.711 22.349 201.802 22.4597 201.902 22.5351C202.002 22.6106 202.11 22.6495 202.218 22.6496C202.327 22.6497 202.434 22.6109 202.534 22.5355C202.635 22.4602 202.726 22.3497 202.802 22.2103C202.879 22.071 202.94 21.9056 202.982 21.7235ZM212.663 22.6496C212.882 22.6497 213.092 22.4917 213.247 22.2103C213.402 21.9289 213.49 21.5472 213.49 21.1492C213.49 20.9521 213.468 20.7569 213.427 20.5748C213.385 20.3926 213.325 20.2271 213.248 20.0877C213.171 19.9483 213.08 19.8377 212.98 19.7622C212.88 19.6867 212.772 19.6478 212.664 19.6478C212.555 19.6477 212.448 19.6865 212.348 19.7618C212.247 19.8372 212.156 19.9477 212.08 20.087C212.003 20.2263 211.942 20.3918 211.901 20.5738C211.859 20.7559 211.838 20.9511 211.838 21.1482C211.838 21.5462 211.924 21.9281 212.079 22.2096C212.234 22.4912 212.444 22.6495 212.663 22.6496ZM223.872 21.7237C223.913 21.5416 223.935 21.3463 223.935 21.1492C223.935 20.751 223.848 20.369 223.693 20.0874C223.538 19.8057 223.328 19.6474 223.109 19.6473C222.89 19.6471 222.679 19.8052 222.524 20.0867C222.369 20.3681 222.282 20.75 222.282 21.1482C222.282 21.3453 222.303 21.5406 222.345 21.7228C222.386 21.905 222.447 22.0705 222.524 22.21C222.601 22.3494 222.692 22.4601 222.792 22.5356C222.892 22.6111 223 22.65 223.108 22.6501C223.217 22.6502 223.324 22.6114 223.424 22.536C223.525 22.4606 223.616 22.3501 223.692 22.2107C223.769 22.0713 223.83 21.9058 223.872 21.7237ZM234.317 21.7237C234.358 21.5416 234.38 21.3463 234.38 21.1492C234.38 20.7511 234.292 20.3693 234.137 20.0877C233.983 19.8062 233.773 19.6479 233.553 19.6478C233.334 19.6476 233.124 19.8056 232.969 20.087C232.814 20.3684 232.727 20.7501 232.727 21.1482C232.727 21.3453 232.748 21.5406 232.79 21.7228C232.831 21.905 232.892 22.0705 232.969 22.21C233.046 22.3494 233.137 22.4601 233.237 22.5356C233.337 22.6111 233.445 22.65 233.553 22.6501C233.662 22.6502 233.769 22.6114 233.869 22.536C233.97 22.4606 234.061 22.3501 234.138 22.2107C234.214 22.0713 234.275 21.9058 234.317 21.7237ZM119.242 41.4452C119.397 41.1637 119.484 40.7819 119.484 40.3839C119.484 39.9858 119.397 39.604 119.242 39.3225C119.087 39.0411 118.877 38.8829 118.658 38.8829C118.439 38.8829 118.229 39.0411 118.074 39.3225C117.919 39.604 117.832 39.9858 117.832 40.3839C117.832 40.7819 117.919 41.1637 118.074 41.4452C118.229 41.7266 118.439 41.8848 118.658 41.8848C118.877 41.8848 119.087 41.7266 119.242 41.4452ZM129.688 41.4452C129.843 41.1637 129.93 40.7819 129.93 40.3839C129.93 39.9858 129.843 39.604 129.688 39.3225C129.533 39.0411 129.323 38.8829 129.104 38.8829C128.885 38.8829 128.675 39.0411 128.52 39.3225C128.365 39.604 128.278 39.9858 128.278 40.3839C128.278 40.7819 128.365 41.1637 128.52 41.4452C128.675 41.7266 128.885 41.8848 129.104 41.8848C129.323 41.8848 129.533 41.7266 129.688 41.4452ZM140.133 41.4452C140.287 41.1637 140.374 40.7819 140.374 40.3839C140.374 39.9858 140.287 39.604 140.133 39.3225C139.978 39.0411 139.768 38.8829 139.548 38.8829C139.329 38.8829 139.119 39.0411 138.964 39.3225C138.809 39.604 138.722 39.9858 138.722 40.3839C138.722 40.7819 138.809 41.1637 138.964 41.4452C139.119 41.7266 139.329 41.8848 139.548 41.8848C139.768 41.8848 139.978 41.7266 140.133 41.4452ZM150.578 41.4452C150.733 41.1637 150.82 40.7819 150.82 40.3839C150.82 39.9858 150.733 39.604 150.578 39.3225C150.423 39.0411 150.213 38.8829 149.994 38.8829C149.774 38.8829 149.564 39.0411 149.41 39.3225C149.255 39.604 149.168 39.9858 149.168 40.3839C149.168 40.7819 149.255 41.1637 149.41 41.4452C149.564 41.7266 149.774 41.8848 149.994 41.8848C150.213 41.8848 150.423 41.7266 150.578 41.4452ZM161.21 40.9749C161.25 40.7864 161.268 40.5854 161.264 40.3839C161.256 39.9955 161.166 39.6279 161.012 39.3583C160.858 39.0887 160.652 38.9381 160.438 38.9382C160.225 38.9384 160.019 39.0892 159.865 39.359C159.711 39.6288 159.621 39.9965 159.613 40.3849C159.609 40.5864 159.628 40.7874 159.667 40.9758C159.707 41.1642 159.767 41.3361 159.844 41.4813C159.921 41.6264 160.014 41.7419 160.116 41.8207C160.218 41.8995 160.328 41.9401 160.439 41.9401C160.55 41.94 160.66 41.8993 160.762 41.8203C160.864 41.7414 160.956 41.6258 161.033 41.4805C161.111 41.3353 161.171 41.1633 161.21 40.9749ZM171.655 40.9749C171.695 40.7864 171.713 40.5854 171.709 40.3839C171.701 39.9955 171.611 39.6279 171.457 39.3583C171.303 39.0887 171.097 38.9381 170.883 38.9382C170.67 38.9384 170.464 39.0892 170.31 39.359C170.156 39.6288 170.066 39.9965 170.058 40.3849C170.054 40.5864 170.073 40.7874 170.112 40.9758C170.152 41.1642 170.212 41.3361 170.289 41.4813C170.366 41.6264 170.459 41.7419 170.561 41.8207C170.663 41.8995 170.773 41.9401 170.884 41.9401C170.995 41.94 171.105 41.8993 171.207 41.8203C171.309 41.7414 171.402 41.6258 171.479 41.4805C171.556 41.3353 171.616 41.1633 171.655 40.9749ZM182.098 40.9701C182.138 40.7835 182.157 40.5841 182.154 40.3839C182.149 39.9926 182.059 39.6209 181.905 39.3478C181.751 39.0748 181.544 38.9221 181.328 38.9222C181.113 38.9223 180.906 39.0753 180.752 39.3485C180.598 39.6218 180.508 39.9936 180.503 40.3849C180.5 40.5852 180.519 40.7844 180.56 40.971C180.6 41.1575 180.66 41.3275 180.737 41.471C180.814 41.6144 180.906 41.7284 181.008 41.8062C181.109 41.884 181.219 41.9241 181.329 41.924C181.439 41.9239 181.548 41.8838 181.65 41.8058C181.751 41.7279 181.843 41.6138 181.92 41.4703C181.997 41.3267 182.058 41.1566 182.098 40.9701ZM192.358 41.4452C192.513 41.1637 192.6 40.7819 192.6 40.3839C192.6 39.9858 192.513 39.604 192.358 39.3225C192.203 39.0411 191.993 38.8829 191.774 38.8829C191.555 38.8829 191.345 39.0411 191.19 39.3225C191.035 39.604 190.948 39.9858 190.948 40.3839C190.948 40.7819 191.035 41.1637 191.19 41.4452C191.345 41.7266 191.555 41.8848 191.774 41.8848C191.993 41.8848 192.203 41.7266 192.358 41.4452ZM202.803 41.4452C202.957 41.1637 203.044 40.7819 203.044 40.3839C203.044 39.9858 202.957 39.604 202.803 39.3225C202.648 39.0411 202.438 38.8829 202.218 38.8829C201.999 38.8829 201.789 39.0411 201.634 39.3225C201.48 39.604 201.392 39.9858 201.392 40.3839C201.392 40.7819 201.48 41.1637 201.634 41.4452C201.789 41.7266 201.999 41.8848 202.218 41.8848C202.438 41.8848 202.648 41.7266 202.803 41.4452ZM213.248 41.4452C213.403 41.1637 213.49 40.7819 213.49 40.3839C213.49 39.9858 213.403 39.604 213.248 39.3225C213.093 39.0411 212.883 38.8829 212.664 38.8829C212.445 38.8829 212.234 39.0411 212.079 39.3225C211.925 39.604 211.838 39.9858 211.838 40.3839C211.838 40.7819 211.925 41.1637 212.079 41.4452C212.234 41.7266 212.445 41.8848 212.664 41.8848C212.883 41.8848 213.093 41.7266 213.248 41.4452ZM223.693 41.4452C223.848 41.1637 223.935 40.7819 223.935 40.3839C223.935 39.9858 223.848 39.604 223.693 39.3225C223.538 39.0411 223.328 38.8829 223.109 38.8829C222.89 38.8829 222.68 39.0411 222.525 39.3225C222.37 39.604 222.283 39.9858 222.283 40.3839C222.283 40.7819 222.37 41.1637 222.525 41.4452C222.68 41.7266 222.89 41.8848 223.109 41.8848C223.328 41.8848 223.538 41.7266 223.693 41.4452ZM234.138 41.4452C234.293 41.1637 234.38 40.7819 234.38 40.3839C234.38 39.9858 234.293 39.604 234.138 39.3225C233.983 39.0411 233.773 38.8829 233.554 38.8829C233.335 38.8829 233.125 39.0411 232.97 39.3225C232.815 39.604 232.728 39.9858 232.728 40.3839C232.728 40.7819 232.815 41.1637 232.97 41.4452C233.125 41.7266 233.335 41.8848 233.554 41.8848C233.773 41.8848 233.983 41.7266 234.138 41.4452ZM119.242 60.6798C119.397 60.3984 119.484 60.0166 119.484 59.6185C119.484 59.2205 119.397 58.8387 119.242 58.5572C119.087 58.2757 118.877 58.1176 118.658 58.1176C118.439 58.1176 118.229 58.2757 118.074 58.5572C117.919 58.8387 117.832 59.2205 117.832 59.6185C117.832 60.0166 117.919 60.3984 118.074 60.6798C118.229 60.9613 118.439 61.1194 118.658 61.1194C118.877 61.1194 119.087 60.9613 119.242 60.6798ZM129.688 60.6805C129.843 60.3989 129.93 60.0169 129.93 59.6185H129.929C129.929 59.2203 129.842 58.8384 129.687 58.5569C129.532 58.2753 129.322 58.1171 129.103 58.1171C128.884 58.1171 128.674 58.2753 128.519 58.5569C128.364 58.8384 128.277 59.2203 128.277 59.6185C128.277 60.0169 128.364 60.3989 128.519 60.6805C128.674 60.9622 128.884 61.1204 129.103 61.1204C129.323 61.1204 129.533 60.9622 129.688 60.6805ZM140.132 60.6802C140.287 60.3986 140.374 60.0167 140.374 59.6185H140.374C140.374 59.2205 140.287 58.8387 140.132 58.5572C139.977 58.2757 139.767 58.1176 139.548 58.1176C139.329 58.1176 139.119 58.2757 138.964 58.5572C138.809 58.8387 138.722 59.2205 138.722 59.6185C138.722 60.0167 138.809 60.3986 138.964 60.6802C139.119 60.9618 139.329 61.1199 139.548 61.1199C139.767 61.1199 139.978 60.9618 140.132 60.6802ZM150.578 60.6802C150.733 60.3986 150.82 60.0167 150.82 59.6185H150.819C150.819 59.2205 150.732 58.8387 150.577 58.5572C150.422 58.2757 150.212 58.1176 149.993 58.1176C149.774 58.1176 149.564 58.2757 149.409 58.5572C149.254 58.8387 149.167 59.2205 149.167 59.6185C149.167 60.0167 149.254 60.3986 149.409 60.6802C149.564 60.9618 149.774 61.1199 149.993 61.1199C150.212 61.1199 150.423 60.9618 150.578 60.6802ZM161.022 60.6798C161.177 60.3984 161.264 60.0166 161.264 59.6185C161.264 59.2205 161.177 58.8387 161.022 58.5572C160.867 58.2757 160.657 58.1176 160.438 58.1176C160.219 58.1176 160.009 58.2757 159.854 58.5572C159.699 58.8387 159.612 59.2205 159.612 59.6185C159.612 60.0166 159.699 60.3984 159.854 60.6798C160.009 60.9613 160.219 61.1194 160.438 61.1194C160.657 61.1194 160.867 60.9613 161.022 60.6798ZM171.467 60.6798C171.622 60.3984 171.709 60.0166 171.709 59.6185C171.709 59.2205 171.622 58.8387 171.467 58.5572C171.312 58.2757 171.102 58.1176 170.883 58.1176C170.664 58.1176 170.454 58.2757 170.299 58.5572C170.144 58.8387 170.057 59.2205 170.057 59.6185C170.057 60.0166 170.144 60.3984 170.299 60.6798C170.454 60.9613 170.664 61.1194 170.883 61.1194C171.102 61.1194 171.312 60.9613 171.467 60.6798ZM181.912 60.6798C182.067 60.3984 182.154 60.0166 182.154 59.6185C182.154 59.2205 182.067 58.8387 181.912 58.5572C181.757 58.2757 181.547 58.1176 181.328 58.1176C181.109 58.1176 180.899 58.2757 180.744 58.5572C180.589 58.8387 180.502 59.2205 180.502 59.6185C180.502 60.0166 180.589 60.3984 180.744 60.6798C180.899 60.9613 181.109 61.1194 181.328 61.1194C181.547 61.1194 181.757 60.9613 181.912 60.6798ZM192.358 60.6802C192.513 60.3986 192.6 60.0167 192.6 59.6185H192.599C192.599 59.2205 192.512 58.8387 192.357 58.5572C192.203 58.2757 191.992 58.1176 191.773 58.1176C191.554 58.1176 191.344 58.2757 191.189 58.5572C191.034 58.8387 190.947 59.2205 190.947 59.6185C190.947 60.0167 191.034 60.3986 191.189 60.6802C191.344 60.9618 191.555 61.1199 191.774 61.1199C191.993 61.1199 192.203 60.9618 192.358 60.6802ZM202.803 60.6798C202.957 60.3984 203.044 60.0166 203.044 59.6185C203.044 59.2205 202.957 58.8387 202.803 58.5572C202.648 58.2757 202.438 58.1176 202.218 58.1176C201.999 58.1176 201.789 58.2757 201.634 58.5572C201.48 58.8387 201.392 59.2205 201.392 59.6185C201.392 60.0166 201.48 60.3984 201.634 60.6798C201.789 60.9613 201.999 61.1194 202.218 61.1194C202.438 61.1194 202.648 60.9613 202.803 60.6798ZM213.248 60.6798C213.403 60.3984 213.49 60.0166 213.49 59.6185C213.49 59.2205 213.403 58.8387 213.248 58.5572C213.093 58.2757 212.883 58.1176 212.664 58.1176C212.445 58.1176 212.234 58.2757 212.079 58.5572C211.925 58.8387 211.838 59.2205 211.838 59.6185C211.838 60.0166 211.925 60.3984 212.079 60.6798C212.234 60.9613 212.445 61.1194 212.664 61.1194C212.883 61.1194 213.093 60.9613 213.248 60.6798ZM223.693 60.6802C223.848 60.3986 223.935 60.0167 223.935 59.6185C223.935 59.2203 223.848 58.8384 223.693 58.5569C223.538 58.2753 223.328 58.1171 223.108 58.1171C222.889 58.1171 222.679 58.2753 222.524 58.5569C222.369 58.8384 222.282 59.2203 222.282 59.6185C222.282 60.0167 222.369 60.3986 222.524 60.6802C222.679 60.9618 222.889 61.1199 223.108 61.1199C223.328 61.1199 223.538 60.9618 223.693 60.6802ZM234.138 60.6802C234.293 60.3986 234.38 60.0167 234.38 59.6185C234.38 59.2205 234.292 58.8387 234.137 58.5572C233.982 58.2757 233.772 58.1176 233.553 58.1176C233.334 58.1176 233.124 58.2757 232.969 58.5572C232.814 58.8387 232.727 59.2205 232.727 59.6185C232.727 60.0167 232.814 60.3986 232.969 60.6802C233.124 60.9618 233.334 61.1199 233.553 61.1199C233.773 61.1199 233.983 60.9618 234.138 60.6802ZM119.242 79.9145C119.397 79.633 119.484 79.2513 119.484 78.8532C119.484 78.4551 119.397 78.0734 119.242 77.7919C119.087 77.5104 118.877 77.3523 118.658 77.3523C118.439 77.3523 118.229 77.5104 118.074 77.7919C117.919 78.0734 117.832 78.4551 117.832 78.8532C117.832 79.2513 117.919 79.633 118.074 79.9145C118.229 80.196 118.439 80.3541 118.658 80.3541C118.877 80.3541 119.087 80.196 119.242 79.9145ZM129.688 79.9145C129.843 79.633 129.93 79.2513 129.93 78.8532C129.93 78.4551 129.843 78.0734 129.688 77.7919C129.533 77.5104 129.323 77.3523 129.104 77.3523C128.885 77.3523 128.675 77.5104 128.52 77.7919C128.365 78.0734 128.278 78.4551 128.278 78.8532C128.278 79.2513 128.365 79.633 128.52 79.9145C128.675 80.196 128.885 80.3541 129.104 80.3541C129.323 80.3541 129.533 80.196 129.688 79.9145ZM140.133 79.9145C140.287 79.633 140.374 79.2513 140.374 78.8532C140.374 78.4551 140.287 78.0734 140.133 77.7919C139.978 77.5104 139.768 77.3523 139.548 77.3523C139.329 77.3523 139.119 77.5104 138.964 77.7919C138.809 78.0734 138.722 78.4551 138.722 78.8532C138.722 79.2513 138.809 79.633 138.964 79.9145C139.119 80.196 139.329 80.3541 139.548 80.3541C139.768 80.3541 139.978 80.196 140.133 79.9145ZM150.578 79.9145C150.733 79.633 150.82 79.2513 150.82 78.8532C150.82 78.4551 150.733 78.0734 150.578 77.7919C150.423 77.5104 150.213 77.3523 149.994 77.3523C149.774 77.3523 149.564 77.5104 149.41 77.7919C149.255 78.0734 149.168 78.4551 149.168 78.8532C149.168 79.2513 149.255 79.633 149.41 79.9145C149.564 80.196 149.774 80.3541 149.994 80.3541C150.213 80.3541 150.423 80.196 150.578 79.9145ZM161.21 79.4442C161.25 79.2558 161.268 79.0548 161.264 78.8532C161.256 78.4649 161.166 78.0973 161.012 77.8277C160.858 77.558 160.652 77.4075 160.438 77.4076C160.225 77.4077 160.019 77.5585 159.865 77.8283C159.711 78.0981 159.621 78.4659 159.613 78.8542C159.609 79.0558 159.628 79.2568 159.667 79.4452C159.707 79.6335 159.767 79.8055 159.844 79.9506C159.921 80.0958 160.014 80.2112 160.116 80.2901C160.218 80.3689 160.328 80.4095 160.439 80.4094C160.55 80.4093 160.66 80.3686 160.762 80.2897C160.864 80.2107 160.956 80.0952 161.033 79.9499C161.111 79.8046 161.171 79.6327 161.21 79.4442ZM171.655 79.4442C171.695 79.2558 171.713 79.0548 171.709 78.8532C171.701 78.4649 171.611 78.0973 171.457 77.8277C171.303 77.558 171.097 77.4075 170.883 77.4076C170.67 77.4077 170.464 77.5585 170.31 77.8283C170.156 78.0981 170.066 78.4659 170.058 78.8542C170.054 79.0558 170.073 79.2568 170.112 79.4452C170.152 79.6335 170.212 79.8055 170.289 79.9506C170.366 80.0958 170.459 80.2112 170.561 80.2901C170.663 80.3689 170.773 80.4095 170.884 80.4094C170.995 80.4093 171.105 80.3686 171.207 80.2897C171.309 80.2107 171.402 80.0952 171.479 79.9499C171.556 79.8046 171.616 79.6327 171.655 79.4442ZM182.098 79.4394C182.138 79.2528 182.157 79.0535 182.154 78.8532C182.149 78.462 182.059 78.0902 181.905 77.8172C181.751 77.5442 181.544 77.3914 181.328 77.3915C181.113 77.3917 180.906 77.5447 180.752 77.8179C180.598 78.0911 180.508 78.463 180.503 78.8542C180.5 79.0545 180.519 79.2538 180.56 79.4403C180.6 79.6269 180.66 79.7969 180.737 79.9403C180.814 80.0838 180.906 80.1978 181.008 80.2756C181.109 80.3534 181.219 80.3934 181.329 80.3934C181.439 80.3933 181.548 80.3531 181.65 80.2752C181.751 80.1973 181.843 80.0832 181.92 79.9396C181.997 79.7961 182.058 79.626 182.098 79.4394ZM192.358 79.9145C192.513 79.633 192.6 79.2513 192.6 78.8532C192.6 78.4551 192.513 78.0734 192.358 77.7919C192.203 77.5104 191.993 77.3523 191.774 77.3523C191.555 77.3523 191.345 77.5104 191.19 77.7919C191.035 78.0734 190.948 78.4551 190.948 78.8532C190.948 79.2513 191.035 79.633 191.19 79.9145C191.345 80.196 191.555 80.3541 191.774 80.3541C191.993 80.3541 192.203 80.196 192.358 79.9145ZM202.803 79.9145C202.957 79.633 203.044 79.2513 203.044 78.8532C203.044 78.4551 202.957 78.0734 202.803 77.7919C202.648 77.5104 202.438 77.3523 202.218 77.3523C201.999 77.3523 201.789 77.5104 201.634 77.7919C201.48 78.0734 201.392 78.4551 201.392 78.8532C201.392 79.2513 201.48 79.633 201.634 79.9145C201.789 80.196 201.999 80.3541 202.218 80.3541C202.438 80.3541 202.648 80.196 202.803 79.9145ZM213.248 79.9145C213.403 79.633 213.49 79.2513 213.49 78.8532C213.49 78.4551 213.403 78.0734 213.248 77.7919C213.093 77.5104 212.883 77.3523 212.664 77.3523C212.445 77.3523 212.234 77.5104 212.079 77.7919C211.925 78.0734 211.838 78.4551 211.838 78.8532C211.838 79.2513 211.925 79.633 212.079 79.9145C212.234 80.196 212.445 80.3541 212.664 80.3541C212.883 80.3541 213.093 80.196 213.248 79.9145ZM223.693 79.9145C223.848 79.633 223.935 79.2513 223.935 78.8532C223.935 78.4551 223.848 78.0734 223.693 77.7919C223.538 77.5104 223.328 77.3523 223.109 77.3523C222.89 77.3523 222.68 77.5104 222.525 77.7919C222.37 78.0734 222.283 78.4551 222.283 78.8532C222.283 79.2513 222.37 79.633 222.525 79.9145C222.68 80.196 222.89 80.3541 223.109 80.3541C223.328 80.3541 223.538 80.196 223.693 79.9145ZM234.138 79.9145C234.293 79.633 234.38 79.2513 234.38 78.8532C234.38 78.4551 234.293 78.0734 234.138 77.7919C233.983 77.5104 233.773 77.3523 233.554 77.3523C233.335 77.3523 233.125 77.5104 232.97 77.7919C232.815 78.0734 232.728 78.4551 232.728 78.8532C232.728 79.2513 232.815 79.633 232.97 79.9145C233.125 80.196 233.335 80.3541 233.554 80.3541C233.773 80.3541 233.983 80.196 234.138 79.9145ZM119.421 98.6632C119.463 98.4812 119.484 98.286 119.484 98.0889V98.0879C119.484 97.6898 119.397 97.3081 119.242 97.0266C119.087 96.7451 118.877 96.587 118.658 96.587C118.439 96.587 118.229 96.7451 118.074 97.0266C117.919 97.3081 117.832 97.6898 117.832 98.0879C117.832 98.285 117.854 98.4802 117.895 98.6623C117.937 98.8444 117.997 99.0099 118.074 99.1493C118.151 99.2887 118.242 99.3994 118.342 99.4749C118.442 99.5503 118.55 99.5892 118.658 99.5893C118.766 99.5894 118.874 99.5506 118.974 99.4752C119.074 99.3999 119.165 99.2894 119.242 99.15C119.319 99.0107 119.38 98.8453 119.421 98.6632ZM129.867 98.6636C129.908 98.4814 129.93 98.2861 129.93 98.0889L129.929 98.0879C129.929 97.6897 129.842 97.3078 129.687 97.0262C129.532 96.7447 129.322 96.5865 129.103 96.5865C128.884 96.5865 128.674 96.7447 128.519 97.0262C128.364 97.3078 128.277 97.6897 128.277 98.0879C128.277 98.2851 128.298 98.4804 128.34 98.6627C128.381 98.8449 128.442 99.0105 128.519 99.15C128.595 99.2896 128.687 99.4002 128.787 99.4758C128.887 99.5513 128.995 99.5902 129.103 99.5903C129.212 99.5904 129.319 99.5516 129.419 99.4762C129.52 99.4007 129.611 99.2902 129.688 99.1507C129.764 99.0113 129.825 98.8458 129.867 98.6636ZM140.311 98.6634C140.353 98.4813 140.374 98.2861 140.374 98.0889L140.374 98.0879C140.374 97.6898 140.287 97.3081 140.132 97.0266C139.977 96.7451 139.767 96.587 139.548 96.587C139.329 96.587 139.119 96.7451 138.964 97.0266C138.809 97.3081 138.722 97.6898 138.722 98.0879C138.722 98.285 138.743 98.4803 138.785 98.6625C138.826 98.8447 138.887 99.0102 138.964 99.1497C139.04 99.2892 139.132 99.3998 139.232 99.4753C139.332 99.5508 139.439 99.5897 139.548 99.5898C139.656 99.5899 139.764 99.5511 139.864 99.4757C139.964 99.4003 140.056 99.2898 140.132 99.1504C140.209 99.011 140.27 98.8455 140.311 98.6634ZM150.757 98.6634C150.798 98.4813 150.82 98.2861 150.82 98.0889L150.819 98.0879C150.819 97.6898 150.732 97.3081 150.577 97.0266C150.422 96.7451 150.212 96.587 149.993 96.587C149.774 96.587 149.564 96.7451 149.409 97.0266C149.254 97.3081 149.167 97.6898 149.167 98.0879C149.167 98.285 149.188 98.4803 149.23 98.6625C149.271 98.8447 149.332 99.0102 149.409 99.1497C149.486 99.2892 149.577 99.3998 149.677 99.4753C149.777 99.5508 149.885 99.5897 149.993 99.5898C150.102 99.5899 150.209 99.5511 150.309 99.4757C150.41 99.4003 150.501 99.2898 150.577 99.1504C150.654 99.011 150.715 98.8455 150.757 98.6634ZM161.022 99.1502C161.177 98.8687 161.264 98.487 161.264 98.0889C161.264 97.6908 161.177 97.3091 161.022 97.0276C160.867 96.7461 160.657 96.588 160.438 96.588C160.219 96.588 160.009 96.7461 159.854 97.0276C159.699 97.3091 159.612 97.6908 159.612 98.0889C159.612 98.487 159.699 98.8687 159.854 99.1502C160.009 99.4317 160.219 99.5898 160.438 99.5898C160.657 99.5898 160.867 99.4317 161.022 99.1502ZM171.467 99.1502C171.622 98.8687 171.709 98.487 171.709 98.0889C171.709 97.6908 171.622 97.3091 171.467 97.0276C171.312 96.7461 171.102 96.588 170.883 96.588C170.664 96.588 170.454 96.7461 170.299 97.0276C170.144 97.3091 170.057 97.6908 170.057 98.0889C170.057 98.487 170.144 98.8687 170.299 99.1502C170.454 99.4317 170.664 99.5898 170.883 99.5898C171.102 99.5898 171.312 99.4317 171.467 99.1502ZM181.912 99.1502C182.067 98.8687 182.154 98.487 182.154 98.0889C182.154 97.6908 182.067 97.3091 181.912 97.0276C181.757 96.7461 181.547 96.588 181.328 96.588C181.109 96.588 180.899 96.7461 180.744 97.0276C180.589 97.3091 180.502 97.6908 180.502 98.0889C180.502 98.487 180.589 98.8687 180.744 99.1502C180.899 99.4317 181.109 99.5898 181.328 99.5898C181.547 99.5898 181.757 99.4317 181.912 99.1502ZM192.537 98.6634C192.579 98.4813 192.6 98.2861 192.6 98.0889L192.599 98.0879C192.599 97.6898 192.512 97.3081 192.357 97.0266C192.203 96.7451 191.992 96.587 191.773 96.587C191.554 96.587 191.344 96.7451 191.189 97.0266C191.034 97.3081 190.947 97.6898 190.947 98.0879C190.947 98.285 190.969 98.4803 191.01 98.6625C191.052 98.8447 191.113 99.0102 191.189 99.1497C191.266 99.2892 191.357 99.3998 191.457 99.4753C191.557 99.5508 191.665 99.5897 191.773 99.5898C191.882 99.5899 191.989 99.5511 192.09 99.4757C192.19 99.4003 192.281 99.2898 192.358 99.1504C192.434 99.011 192.495 98.8455 192.537 98.6634ZM202.982 98.6632C203.023 98.4812 203.044 98.286 203.044 98.0889V98.0879C203.044 97.6898 202.957 97.3081 202.803 97.0266C202.648 96.7451 202.438 96.587 202.218 96.587C201.999 96.587 201.789 96.7451 201.634 97.0266C201.48 97.3081 201.392 97.6898 201.392 98.0879C201.392 98.285 201.414 98.4802 201.455 98.6623C201.497 98.8444 201.558 99.0099 201.634 99.1493C201.711 99.2887 201.802 99.3994 201.902 99.4749C202.002 99.5503 202.11 99.5892 202.218 99.5893C202.327 99.5894 202.434 99.5506 202.534 99.4752C202.635 99.3999 202.726 99.2894 202.802 99.15C202.879 99.0107 202.94 98.8453 202.982 98.6632ZM213.427 98.6632C213.468 98.4812 213.49 98.286 213.49 98.0889V98.0879C213.49 97.6898 213.403 97.3081 213.248 97.0266C213.093 96.7451 212.883 96.587 212.664 96.587C212.445 96.587 212.234 96.7451 212.079 97.0266C211.925 97.3081 211.838 97.6898 211.838 98.0879C211.838 98.285 211.859 98.4802 211.9 98.6623C211.942 98.8444 212.003 99.0099 212.079 99.1493C212.156 99.2887 212.247 99.3994 212.347 99.4749C212.447 99.5503 212.555 99.5892 212.663 99.5893C212.772 99.5894 212.879 99.5506 212.979 99.4752C213.08 99.3999 213.171 99.2894 213.247 99.15C213.324 99.0107 213.385 98.8453 213.427 98.6632ZM223.872 98.6634C223.913 98.4813 223.935 98.2861 223.935 98.0889V98.0879C223.935 97.6897 223.848 97.3078 223.693 97.0262C223.538 96.7447 223.328 96.5865 223.108 96.5865C222.889 96.5865 222.679 96.7447 222.524 97.0262C222.369 97.3078 222.282 97.6897 222.282 98.0879C222.282 98.285 222.303 98.4803 222.345 98.6625C222.386 98.8447 222.447 99.0102 222.524 99.1497C222.601 99.2892 222.692 99.3998 222.792 99.4753C222.892 99.5508 223 99.5897 223.108 99.5898C223.217 99.5899 223.324 99.5511 223.424 99.4757C223.525 99.4003 223.616 99.2898 223.692 99.1504C223.769 99.011 223.83 98.8455 223.872 98.6634ZM234.317 98.6634C234.358 98.4813 234.38 98.2861 234.38 98.0889L234.379 98.0879C234.379 97.6898 234.292 97.3081 234.137 97.0266C233.982 96.7451 233.772 96.587 233.553 96.587C233.334 96.587 233.124 96.7451 232.969 97.0266C232.814 97.3081 232.727 97.6898 232.727 98.0879C232.727 98.285 232.748 98.4803 232.79 98.6625C232.831 98.8447 232.892 99.0102 232.969 99.1497C233.046 99.2892 233.137 99.3998 233.237 99.4753C233.337 99.5508 233.445 99.5897 233.553 99.5898C233.662 99.5899 233.769 99.5511 233.869 99.4757C233.97 99.4003 234.061 99.2898 234.138 99.1504C234.214 99.011 234.275 98.8455 234.317 98.6634ZM119.242 118.384C119.397 118.102 119.484 117.721 119.484 117.323C119.484 116.924 119.397 116.543 119.242 116.261C119.087 115.98 118.877 115.822 118.658 115.822C118.439 115.822 118.229 115.98 118.074 116.261C117.919 116.543 117.832 116.924 117.832 117.323C117.832 117.721 117.919 118.102 118.074 118.384C118.229 118.665 118.439 118.823 118.658 118.823C118.877 118.823 119.087 118.665 119.242 118.384ZM129.688 118.385C129.843 118.103 129.93 117.721 129.93 117.323H129.929C129.929 116.924 129.842 116.542 129.687 116.261C129.532 115.979 129.322 115.821 129.103 115.821C128.884 115.821 128.674 115.979 128.519 116.261C128.364 116.542 128.277 116.924 128.277 117.323C128.277 117.721 128.364 118.103 128.519 118.385C128.674 118.666 128.884 118.824 129.103 118.824C129.323 118.824 129.533 118.666 129.688 118.385ZM140.132 118.384C140.287 118.103 140.374 117.721 140.374 117.323H140.374C140.374 116.924 140.287 116.543 140.132 116.261C139.977 115.98 139.767 115.822 139.548 115.822C139.329 115.822 139.119 115.98 138.964 116.261C138.809 116.543 138.722 116.924 138.722 117.323C138.722 117.721 138.809 118.103 138.964 118.384C139.119 118.666 139.329 118.824 139.548 118.824C139.767 118.824 139.978 118.666 140.132 118.384ZM150.578 118.384C150.733 118.103 150.82 117.721 150.82 117.323H150.819C150.819 116.924 150.732 116.543 150.577 116.261C150.422 115.98 150.212 115.822 149.993 115.822C149.774 115.822 149.564 115.98 149.409 116.261C149.254 116.543 149.167 116.924 149.167 117.323C149.167 117.721 149.254 118.103 149.409 118.384C149.564 118.666 149.774 118.824 149.993 118.824C150.212 118.824 150.423 118.666 150.578 118.384ZM161.022 118.384C161.177 118.102 161.264 117.721 161.264 117.323C161.264 116.924 161.177 116.543 161.022 116.261C160.867 115.98 160.657 115.822 160.438 115.822C160.219 115.822 160.009 115.98 159.854 116.261C159.699 116.543 159.612 116.924 159.612 117.323C159.612 117.721 159.699 118.102 159.854 118.384C160.009 118.665 160.219 118.823 160.438 118.823C160.657 118.823 160.867 118.665 161.022 118.384ZM171.467 118.384C171.622 118.102 171.709 117.721 171.709 117.323C171.709 116.924 171.622 116.543 171.467 116.261C171.312 115.98 171.102 115.822 170.883 115.822C170.664 115.822 170.454 115.98 170.299 116.261C170.144 116.543 170.057 116.924 170.057 117.323C170.057 117.721 170.144 118.102 170.299 118.384C170.454 118.665 170.664 118.823 170.883 118.823C171.102 118.823 171.312 118.665 171.467 118.384ZM181.912 118.384C182.067 118.102 182.154 117.721 182.154 117.323C182.154 116.924 182.067 116.543 181.912 116.261C181.757 115.98 181.547 115.822 181.328 115.822C181.109 115.822 180.899 115.98 180.744 116.261C180.589 116.543 180.502 116.924 180.502 117.323C180.502 117.721 180.589 118.102 180.744 118.384C180.899 118.665 181.109 118.823 181.328 118.823C181.547 118.823 181.757 118.665 181.912 118.384ZM192.358 118.384C192.513 118.103 192.6 117.721 192.6 117.323H192.599C192.599 116.924 192.512 116.543 192.357 116.261C192.203 115.98 191.992 115.822 191.773 115.822C191.554 115.822 191.344 115.98 191.189 116.261C191.034 116.543 190.947 116.924 190.947 117.323C190.947 117.721 191.034 118.103 191.189 118.384C191.344 118.666 191.555 118.824 191.774 118.824C191.993 118.824 192.203 118.666 192.358 118.384ZM202.803 118.384C202.957 118.102 203.044 117.721 203.044 117.323C203.044 116.924 202.957 116.543 202.803 116.261C202.648 115.98 202.438 115.822 202.218 115.822C201.999 115.822 201.789 115.98 201.634 116.261C201.48 116.543 201.392 116.924 201.392 117.323C201.392 117.721 201.48 118.102 201.634 118.384C201.789 118.665 201.999 118.823 202.218 118.823C202.438 118.823 202.648 118.665 202.803 118.384ZM213.248 118.384C213.403 118.102 213.49 117.721 213.49 117.323C213.49 116.924 213.403 116.543 213.248 116.261C213.093 115.98 212.883 115.822 212.664 115.822C212.445 115.822 212.234 115.98 212.079 116.261C211.925 116.543 211.838 116.924 211.838 117.323C211.838 117.721 211.925 118.102 212.079 118.384C212.234 118.665 212.445 118.823 212.664 118.823C212.883 118.823 213.093 118.665 213.248 118.384ZM223.693 118.384C223.848 118.103 223.935 117.721 223.935 117.323C223.935 116.924 223.848 116.542 223.693 116.261C223.538 115.979 223.328 115.821 223.108 115.821C222.889 115.821 222.679 115.979 222.524 116.261C222.369 116.542 222.282 116.924 222.282 117.323C222.282 117.721 222.369 118.103 222.524 118.384C222.679 118.666 222.889 118.824 223.108 118.824C223.328 118.824 223.538 118.666 223.693 118.384ZM234.138 118.384C234.293 118.103 234.38 117.721 234.38 117.323C234.38 116.924 234.292 116.543 234.137 116.261C233.982 115.98 233.772 115.822 233.553 115.822C233.334 115.822 233.124 115.98 232.969 116.261C232.814 116.543 232.727 116.924 232.727 117.323C232.727 117.721 232.814 118.103 232.969 118.384C233.124 118.666 233.334 118.824 233.553 118.824C233.773 118.824 233.983 118.666 234.138 118.384ZM119.242 137.619C119.397 137.338 119.484 136.956 119.484 136.558C119.484 136.16 119.397 135.777 119.242 135.496C119.087 135.214 118.877 135.056 118.658 135.056C118.439 135.056 118.229 135.214 118.074 135.496C117.919 135.777 117.832 136.159 117.832 136.557C117.832 136.955 117.919 137.337 118.074 137.619C118.229 137.9 118.439 138.059 118.658 138.059C118.877 138.059 119.087 137.901 119.242 137.619ZM129.688 137.62C129.843 137.339 129.93 136.957 129.93 136.558L129.929 136.557C129.929 136.159 129.842 135.777 129.687 135.496C129.532 135.214 129.322 135.056 129.103 135.056C128.884 135.056 128.674 135.214 128.519 135.496C128.364 135.777 128.277 136.159 128.277 136.557C128.277 136.956 128.364 137.338 128.519 137.619C128.674 137.901 128.884 138.06 129.103 138.06C129.322 138.06 129.533 137.902 129.688 137.62ZM140.311 137.133C140.353 136.951 140.374 136.755 140.374 136.558L140.374 136.557C140.374 136.159 140.287 135.777 140.132 135.496C139.977 135.214 139.767 135.056 139.548 135.056C139.329 135.056 139.119 135.214 138.964 135.496C138.809 135.777 138.722 136.159 138.722 136.557C138.722 136.754 138.743 136.95 138.785 137.132C138.826 137.314 138.887 137.48 138.964 137.619C139.04 137.759 139.132 137.869 139.232 137.945C139.332 138.02 139.439 138.059 139.548 138.059C139.656 138.059 139.764 138.02 139.864 137.945C139.964 137.87 140.056 137.759 140.132 137.62C140.209 137.48 140.27 137.315 140.311 137.133ZM150.757 137.133C150.798 136.951 150.82 136.755 150.82 136.558L150.819 136.557C150.819 136.159 150.732 135.777 150.577 135.496C150.422 135.214 150.212 135.056 149.993 135.056C149.774 135.056 149.564 135.214 149.409 135.496C149.254 135.777 149.167 136.159 149.167 136.557C149.167 136.754 149.188 136.95 149.23 137.132C149.271 137.314 149.332 137.48 149.409 137.619C149.486 137.759 149.577 137.869 149.677 137.945C149.777 138.02 149.885 138.059 149.993 138.059C150.102 138.059 150.209 138.02 150.309 137.945C150.41 137.87 150.501 137.759 150.577 137.62C150.654 137.48 150.715 137.315 150.757 137.133ZM161.022 137.62C161.177 137.338 161.264 136.956 161.264 136.558C161.264 136.16 161.177 135.778 161.022 135.497C160.867 135.215 160.657 135.057 160.438 135.057C160.219 135.057 160.009 135.215 159.854 135.497C159.699 135.778 159.612 136.16 159.612 136.558C159.612 136.956 159.699 137.338 159.854 137.62C160.009 137.901 160.219 138.059 160.438 138.059C160.657 138.059 160.867 137.901 161.022 137.62ZM171.467 137.62C171.622 137.338 171.709 136.956 171.709 136.558C171.709 136.16 171.622 135.778 171.467 135.497C171.312 135.215 171.102 135.057 170.883 135.057C170.664 135.057 170.454 135.215 170.299 135.497C170.144 135.778 170.057 136.16 170.057 136.558C170.057 136.956 170.144 137.338 170.299 137.62C170.454 137.901 170.664 138.059 170.883 138.059C171.102 138.059 171.312 137.901 171.467 137.62ZM181.912 137.62C182.067 137.338 182.154 136.956 182.154 136.558C182.154 136.16 182.067 135.778 181.912 135.497C181.757 135.215 181.547 135.057 181.328 135.057C181.109 135.057 180.899 135.215 180.744 135.497C180.589 135.778 180.502 136.16 180.502 136.558C180.502 136.956 180.589 137.338 180.744 137.62C180.899 137.901 181.109 138.059 181.328 138.059C181.547 138.059 181.757 137.901 181.912 137.62ZM192.537 137.133C192.579 136.951 192.6 136.755 192.6 136.558L192.599 136.557C192.599 136.159 192.512 135.777 192.357 135.496C192.203 135.214 191.992 135.056 191.773 135.056C191.554 135.056 191.344 135.214 191.189 135.496C191.034 135.777 190.947 136.159 190.947 136.557C190.947 136.754 190.969 136.95 191.01 137.132C191.052 137.314 191.113 137.48 191.189 137.619C191.266 137.759 191.357 137.869 191.457 137.945C191.557 138.02 191.665 138.059 191.773 138.059C191.882 138.059 191.989 138.02 192.09 137.945C192.19 137.87 192.281 137.759 192.358 137.62C192.434 137.48 192.495 137.315 192.537 137.133ZM202.982 137.133C203.023 136.951 203.044 136.755 203.044 136.558C203.044 136.16 202.957 135.777 202.803 135.496C202.648 135.214 202.438 135.056 202.218 135.056C201.999 135.056 201.789 135.214 201.634 135.496C201.48 135.777 201.392 136.159 201.392 136.557C201.392 136.754 201.414 136.95 201.455 137.132C201.497 137.314 201.558 137.479 201.634 137.619C201.711 137.758 201.802 137.869 201.902 137.944C202.002 138.02 202.11 138.059 202.218 138.059C202.327 138.059 202.434 138.02 202.534 137.945C202.635 137.869 202.726 137.759 202.802 137.619C202.879 137.48 202.94 137.315 202.982 137.133ZM212.079 137.619C212.234 137.9 212.444 138.059 212.663 138.059C212.882 138.059 213.092 137.901 213.247 137.619C213.402 137.338 213.49 136.956 213.49 136.558C213.49 136.16 213.403 135.777 213.248 135.496C213.093 135.214 212.883 135.056 212.664 135.056C212.445 135.056 212.234 135.214 212.079 135.496C211.925 135.777 211.838 136.159 211.838 136.557C211.838 136.955 211.924 137.337 212.079 137.619ZM223.872 137.133C223.913 136.951 223.935 136.755 223.935 136.558C223.935 136.16 223.848 135.777 223.693 135.496C223.538 135.214 223.328 135.056 223.108 135.056C222.889 135.056 222.679 135.214 222.524 135.496C222.369 135.777 222.282 136.159 222.282 136.557C222.282 136.754 222.303 136.95 222.345 137.132C222.386 137.314 222.447 137.48 222.524 137.619C222.601 137.759 222.692 137.869 222.792 137.945C222.892 138.02 223 138.059 223.108 138.059C223.217 138.059 223.324 138.02 223.424 137.945C223.525 137.87 223.616 137.759 223.692 137.62C223.769 137.48 223.83 137.315 223.872 137.133ZM234.317 137.133C234.358 136.951 234.38 136.755 234.38 136.558L234.379 136.557C234.379 136.159 234.292 135.777 234.137 135.496C233.982 135.214 233.772 135.056 233.553 135.056C233.334 135.056 233.124 135.214 232.969 135.496C232.814 135.777 232.727 136.159 232.727 136.557C232.727 136.754 232.748 136.95 232.79 137.132C232.831 137.314 232.892 137.48 232.969 137.619C233.046 137.759 233.137 137.869 233.237 137.945C233.337 138.02 233.445 138.059 233.553 138.059C233.662 138.059 233.769 138.02 233.869 137.945C233.97 137.87 234.061 137.759 234.138 137.62C234.214 137.48 234.275 137.315 234.317 137.133ZM119.242 156.854C119.397 156.573 119.484 156.191 119.484 155.793C119.484 155.395 119.398 155.013 119.243 154.731C119.088 154.45 118.878 154.291 118.659 154.291C118.44 154.291 118.23 154.449 118.075 154.73C117.92 155.011 117.832 155.393 117.832 155.791C117.832 156.189 117.919 156.571 118.074 156.853C118.229 157.134 118.439 157.293 118.658 157.293C118.877 157.293 119.087 157.135 119.242 156.854ZM129.867 156.368C129.908 156.185 129.93 155.99 129.93 155.793H129.929C129.93 155.395 129.843 155.013 129.688 154.731C129.533 154.449 129.323 154.291 129.104 154.291C128.885 154.29 128.674 154.448 128.519 154.73C128.364 155.011 128.277 155.393 128.277 155.791C128.277 156.189 128.364 156.571 128.519 156.853C128.673 157.135 128.884 157.294 129.103 157.294C129.322 157.294 129.532 157.136 129.687 156.855C129.764 156.715 129.825 156.55 129.867 156.368ZM140.311 156.367C140.353 156.185 140.374 155.99 140.374 155.793H140.374C140.374 155.395 140.287 155.013 140.132 154.731C139.978 154.45 139.768 154.291 139.548 154.291C139.329 154.291 139.119 154.449 138.964 154.73C138.809 155.011 138.722 155.393 138.722 155.791C138.722 155.988 138.743 156.183 138.785 156.366C138.826 156.548 138.887 156.713 138.964 156.853C139.04 156.992 139.131 157.103 139.231 157.179C139.332 157.254 139.439 157.293 139.548 157.293C139.656 157.293 139.764 157.255 139.864 157.179C139.964 157.104 140.055 156.994 140.132 156.854C140.209 156.715 140.27 156.55 140.311 156.367ZM150.756 156.367C150.798 156.185 150.819 155.99 150.82 155.793H150.819C150.819 155.395 150.732 155.013 150.577 154.731C150.423 154.45 150.213 154.291 149.994 154.291C149.774 154.291 149.564 154.449 149.409 154.73C149.254 155.011 149.167 155.393 149.167 155.791C149.167 155.988 149.188 156.183 149.23 156.366C149.271 156.548 149.332 156.713 149.409 156.853C149.485 156.992 149.576 157.103 149.677 157.179C149.777 157.254 149.884 157.293 149.993 157.293C150.101 157.293 150.209 157.255 150.309 157.179C150.409 157.104 150.5 156.994 150.577 156.854C150.654 156.715 150.715 156.55 150.756 156.367ZM161.022 156.854C161.177 156.573 161.264 156.191 161.264 155.793C161.264 155.395 161.177 155.013 161.022 154.732C160.867 154.45 160.657 154.292 160.438 154.292C160.219 154.292 160.009 154.45 159.854 154.732C159.699 155.013 159.612 155.395 159.612 155.793C159.612 156.191 159.699 156.573 159.854 156.854C160.009 157.136 160.219 157.294 160.438 157.294C160.657 157.294 160.867 157.136 161.022 156.854ZM171.467 156.854C171.622 156.573 171.709 156.191 171.709 155.793C171.709 155.395 171.622 155.013 171.467 154.732C171.312 154.45 171.102 154.292 170.883 154.292C170.664 154.292 170.454 154.45 170.299 154.732C170.144 155.013 170.057 155.395 170.057 155.793C170.057 156.191 170.144 156.573 170.299 156.854C170.454 157.136 170.664 157.294 170.883 157.294C171.102 157.294 171.312 157.136 171.467 156.854ZM181.912 156.854C182.067 156.573 182.154 156.191 182.154 155.793C182.154 155.395 182.067 155.013 181.912 154.732C181.757 154.45 181.547 154.292 181.328 154.292C181.109 154.292 180.899 154.45 180.744 154.732C180.589 155.013 180.502 155.395 180.502 155.793C180.502 156.191 180.589 156.573 180.744 156.854C180.899 157.136 181.109 157.294 181.328 157.294C181.547 157.294 181.757 157.136 181.912 156.854ZM192.537 156.367C192.578 156.185 192.6 155.99 192.6 155.793H192.599C192.6 155.395 192.513 155.013 192.358 154.731C192.203 154.45 191.993 154.291 191.774 154.291C191.555 154.291 191.345 154.449 191.19 154.73C191.035 155.011 190.948 155.393 190.947 155.791C190.947 155.988 190.969 156.183 191.01 156.366C191.052 156.548 191.112 156.713 191.189 156.853C191.266 156.992 191.357 157.103 191.457 157.179C191.557 157.254 191.665 157.293 191.773 157.293C191.882 157.293 191.989 157.255 192.089 157.179C192.19 157.104 192.281 156.994 192.358 156.854C192.434 156.715 192.495 156.55 192.537 156.367ZM202.981 156.367C203.023 156.185 203.044 155.99 203.044 155.793C203.045 155.395 202.958 155.013 202.803 154.731C202.648 154.45 202.438 154.291 202.219 154.291C202 154.291 201.79 154.449 201.635 154.73C201.48 155.011 201.393 155.393 201.392 155.791C201.392 155.988 201.414 156.183 201.455 156.365C201.497 156.548 201.557 156.713 201.634 156.853C201.711 156.992 201.802 157.103 201.902 157.178C202.002 157.254 202.109 157.293 202.218 157.293C202.326 157.293 202.434 157.254 202.534 157.179C202.634 157.104 202.725 156.993 202.802 156.854C202.879 156.715 202.94 156.549 202.981 156.367ZM213.426 156.367C213.468 156.185 213.49 155.99 213.49 155.793C213.49 155.395 213.403 155.013 213.248 154.731C213.093 154.45 212.883 154.291 212.664 154.291C212.445 154.291 212.235 154.449 212.08 154.73C211.925 155.011 211.838 155.393 211.838 155.791C211.838 155.988 211.859 156.183 211.9 156.365C211.942 156.548 212.002 156.713 212.079 156.853C212.156 156.992 212.247 157.103 212.347 157.178C212.447 157.254 212.555 157.293 212.663 157.293C212.771 157.293 212.879 157.254 212.979 157.179C213.079 157.104 213.171 156.993 213.247 156.854C213.324 156.715 213.385 156.549 213.426 156.367ZM223.872 156.367C223.913 156.185 223.935 155.99 223.935 155.793C223.935 155.395 223.848 155.013 223.693 154.731C223.538 154.449 223.328 154.291 223.109 154.291C222.89 154.29 222.68 154.448 222.525 154.73C222.369 155.011 222.282 155.393 222.282 155.791C222.282 155.988 222.303 156.183 222.345 156.366C222.386 156.548 222.447 156.713 222.524 156.853C222.6 156.992 222.691 157.103 222.792 157.179C222.892 157.254 222.999 157.293 223.108 157.293C223.216 157.293 223.324 157.255 223.424 157.179C223.524 157.104 223.615 156.994 223.692 156.854C223.769 156.715 223.83 156.55 223.872 156.367ZM234.317 156.367C234.358 156.185 234.38 155.99 234.38 155.793C234.38 155.395 234.292 155.013 234.138 154.731C233.983 154.45 233.773 154.291 233.554 154.291C233.335 154.291 233.125 154.449 232.97 154.73C232.815 155.011 232.727 155.393 232.727 155.791C232.727 155.988 232.748 156.183 232.79 156.366C232.831 156.548 232.892 156.713 232.969 156.853C233.046 156.992 233.137 157.103 233.237 157.179C233.337 157.254 233.444 157.293 233.553 157.293C233.661 157.293 233.769 157.255 233.869 157.179C233.969 157.104 234.061 156.994 234.137 156.854C234.214 156.715 234.275 156.55 234.317 156.367ZM119.242 176.088C119.397 175.806 119.484 175.425 119.484 175.027C119.484 174.629 119.397 174.247 119.242 173.965C119.087 173.684 118.877 173.526 118.658 173.526C118.439 173.526 118.229 173.684 118.074 173.965C117.919 174.247 117.832 174.629 117.832 175.027C117.832 175.425 117.919 175.806 118.074 176.088C118.229 176.369 118.439 176.528 118.658 176.528C118.877 176.528 119.087 176.369 119.242 176.088ZM129.688 176.088C129.843 175.806 129.93 175.425 129.93 175.027C129.93 174.629 129.843 174.247 129.688 173.965C129.533 173.684 129.323 173.526 129.104 173.526C128.885 173.526 128.675 173.684 128.52 173.965C128.365 174.247 128.278 174.629 128.278 175.027C128.278 175.425 128.365 175.806 128.52 176.088C128.675 176.369 128.885 176.528 129.104 176.528C129.323 176.528 129.533 176.369 129.688 176.088ZM140.133 176.088C140.287 175.806 140.374 175.425 140.374 175.027C140.374 174.629 140.287 174.247 140.133 173.965C139.978 173.684 139.768 173.526 139.548 173.526C139.329 173.526 139.119 173.684 138.964 173.965C138.809 174.247 138.722 174.629 138.722 175.027C138.722 175.425 138.809 175.806 138.964 176.088C139.119 176.369 139.329 176.528 139.548 176.528C139.768 176.528 139.978 176.369 140.133 176.088ZM150.578 176.088C150.733 175.806 150.82 175.425 150.82 175.027C150.82 174.629 150.733 174.247 150.578 173.965C150.423 173.684 150.213 173.526 149.994 173.526C149.774 173.526 149.564 173.684 149.41 173.965C149.255 174.247 149.168 174.629 149.168 175.027C149.168 175.425 149.255 175.806 149.41 176.088C149.564 176.369 149.774 176.528 149.994 176.528C150.213 176.528 150.423 176.369 150.578 176.088ZM161.21 175.618C161.25 175.429 161.268 175.228 161.264 175.027C161.256 174.638 161.166 174.271 161.012 174.001C160.858 173.732 160.652 173.581 160.438 173.581C160.224 173.582 160.019 173.733 159.865 174.003C159.711 174.272 159.621 174.64 159.613 175.029C159.609 175.23 159.628 175.431 159.667 175.62C159.707 175.808 159.767 175.98 159.844 176.125C159.922 176.27 160.014 176.385 160.116 176.464C160.218 176.543 160.328 176.583 160.439 176.583C160.55 176.583 160.66 176.542 160.762 176.463C160.864 176.384 160.957 176.269 161.034 176.123C161.111 175.978 161.171 175.806 161.21 175.618ZM171.655 175.618C171.695 175.429 171.713 175.228 171.709 175.027C171.701 174.638 171.611 174.271 171.457 174.001C171.303 173.732 171.097 173.581 170.883 173.581C170.669 173.582 170.464 173.733 170.31 174.003C170.156 174.272 170.066 174.64 170.058 175.029C170.054 175.23 170.073 175.431 170.112 175.62C170.152 175.808 170.212 175.98 170.29 176.125C170.367 176.27 170.459 176.385 170.561 176.464C170.663 176.543 170.773 176.583 170.884 176.583C170.995 176.583 171.105 176.542 171.207 176.463C171.309 176.384 171.402 176.269 171.479 176.123C171.556 175.978 171.616 175.806 171.655 175.618ZM182.098 175.613C182.138 175.426 182.157 175.227 182.154 175.027C182.149 174.635 182.059 174.264 181.905 173.991C181.75 173.718 181.543 173.565 181.328 173.565C181.113 173.566 180.906 173.719 180.752 173.992C180.598 174.265 180.508 174.637 180.503 175.029C180.5 175.229 180.519 175.428 180.56 175.615C180.6 175.801 180.66 175.971 180.737 176.115C180.814 176.258 180.906 176.372 181.008 176.45C181.11 176.527 181.219 176.567 181.329 176.567C181.439 176.567 181.549 176.527 181.65 176.449C181.752 176.371 181.844 176.257 181.921 176.113C181.997 175.97 182.058 175.799 182.098 175.613ZM192.358 176.088C192.513 175.806 192.6 175.425 192.6 175.027C192.6 174.629 192.513 174.247 192.358 173.965C192.203 173.684 191.993 173.526 191.774 173.526C191.555 173.526 191.345 173.684 191.19 173.965C191.035 174.247 190.948 174.629 190.948 175.027C190.948 175.425 191.035 175.806 191.19 176.088C191.345 176.369 191.555 176.528 191.774 176.528C191.993 176.528 192.203 176.369 192.358 176.088ZM202.803 176.088C202.957 175.806 203.044 175.425 203.044 175.027C203.044 174.629 202.957 174.247 202.803 173.965C202.648 173.684 202.438 173.526 202.218 173.526C201.999 173.526 201.789 173.684 201.634 173.965C201.48 174.247 201.392 174.629 201.392 175.027C201.392 175.425 201.48 175.806 201.634 176.088C201.789 176.369 201.999 176.528 202.218 176.528C202.438 176.528 202.648 176.369 202.803 176.088ZM213.248 176.088C213.403 175.806 213.49 175.425 213.49 175.027C213.49 174.629 213.403 174.247 213.248 173.965C213.093 173.684 212.883 173.526 212.664 173.526C212.445 173.526 212.234 173.684 212.079 173.965C211.925 174.247 211.838 174.629 211.838 175.027C211.838 175.425 211.925 175.806 212.079 176.088C212.234 176.369 212.445 176.528 212.664 176.528C212.883 176.528 213.093 176.369 213.248 176.088ZM223.693 176.088C223.848 175.806 223.935 175.425 223.935 175.027C223.935 174.629 223.848 174.247 223.693 173.965C223.538 173.684 223.328 173.526 223.109 173.526C222.89 173.526 222.68 173.684 222.525 173.965C222.37 174.247 222.283 174.629 222.283 175.027C222.283 175.425 222.37 175.806 222.525 176.088C222.68 176.369 222.89 176.528 223.109 176.528C223.328 176.528 223.538 176.369 223.693 176.088ZM234.138 176.088C234.293 175.806 234.38 175.425 234.38 175.027C234.38 174.629 234.293 174.247 234.138 173.965C233.983 173.684 233.773 173.526 233.554 173.526C233.335 173.526 233.125 173.684 232.97 173.965C232.815 174.247 232.728 174.629 232.728 175.027C232.728 175.425 232.815 175.806 232.97 176.088C233.125 176.369 233.335 176.528 233.554 176.528C233.773 176.528 233.983 176.369 234.138 176.088ZM119.242 195.323C119.397 195.042 119.484 194.66 119.484 194.262V194.261C119.484 193.863 119.397 193.481 119.242 193.2C119.087 192.919 118.877 192.76 118.658 192.76C118.439 192.76 118.229 192.919 118.074 193.2C117.919 193.481 117.832 193.863 117.832 194.261C117.832 194.659 117.919 195.041 118.074 195.323C118.229 195.604 118.439 195.763 118.658 195.763C118.877 195.763 119.087 195.605 119.242 195.323ZM129.688 195.324C129.843 195.043 129.93 194.661 129.93 194.262L129.929 194.261C129.929 193.863 129.842 193.481 129.687 193.2C129.532 192.918 129.322 192.76 129.103 192.76C128.884 192.76 128.674 192.918 128.519 193.2C128.364 193.481 128.277 193.863 128.277 194.261C128.277 194.66 128.364 195.042 128.519 195.323C128.674 195.605 128.884 195.764 129.103 195.764C129.322 195.764 129.533 195.606 129.688 195.324ZM140.132 195.324C140.287 195.042 140.374 194.66 140.374 194.262L140.374 194.261C140.374 193.863 140.287 193.481 140.132 193.2C139.977 192.919 139.767 192.76 139.548 192.76C139.329 192.76 139.119 192.919 138.964 193.2C138.809 193.481 138.722 193.863 138.722 194.261C138.722 194.659 138.809 195.041 138.964 195.323C139.119 195.605 139.329 195.763 139.548 195.763C139.767 195.763 139.977 195.605 140.132 195.324ZM150.577 195.324C150.732 195.042 150.819 194.66 150.82 194.262L150.819 194.261C150.819 193.863 150.732 193.481 150.577 193.2C150.422 192.919 150.212 192.76 149.993 192.76C149.774 192.76 149.564 192.919 149.409 193.2C149.254 193.481 149.167 193.863 149.167 194.261C149.167 194.659 149.254 195.041 149.409 195.323C149.564 195.605 149.774 195.763 149.993 195.763C150.212 195.763 150.422 195.605 150.577 195.324ZM161.022 195.324C161.177 195.042 161.264 194.66 161.264 194.262C161.264 193.864 161.177 193.482 161.022 193.201C160.867 192.919 160.657 192.761 160.438 192.761C160.219 192.761 160.009 192.919 159.854 193.201C159.699 193.482 159.612 193.864 159.612 194.262C159.612 194.66 159.699 195.042 159.854 195.324C160.009 195.605 160.219 195.763 160.438 195.763C160.657 195.763 160.867 195.605 161.022 195.324ZM171.467 195.324C171.622 195.042 171.709 194.66 171.709 194.262C171.709 193.864 171.622 193.482 171.467 193.201C171.312 192.919 171.102 192.761 170.883 192.761C170.664 192.761 170.454 192.919 170.299 193.201C170.144 193.482 170.057 193.864 170.057 194.262C170.057 194.66 170.144 195.042 170.299 195.324C170.454 195.605 170.664 195.763 170.883 195.763C171.102 195.763 171.312 195.605 171.467 195.324ZM181.912 195.324C182.067 195.042 182.154 194.66 182.154 194.262C182.154 193.864 182.067 193.482 181.912 193.201C181.757 192.919 181.547 192.761 181.328 192.761C181.109 192.761 180.899 192.919 180.744 193.201C180.589 193.482 180.502 193.864 180.502 194.262C180.502 194.66 180.589 195.042 180.744 195.324C180.899 195.605 181.109 195.763 181.328 195.763C181.547 195.763 181.757 195.605 181.912 195.324ZM192.537 194.837C192.579 194.655 192.6 194.459 192.6 194.262L192.599 194.261C192.599 193.863 192.512 193.481 192.357 193.2C192.203 192.919 191.992 192.76 191.773 192.76C191.554 192.76 191.344 192.919 191.189 193.2C191.034 193.481 190.947 193.863 190.947 194.261C190.947 194.458 190.969 194.654 191.01 194.836C191.052 195.018 191.113 195.184 191.189 195.323C191.266 195.463 191.357 195.573 191.457 195.649C191.557 195.724 191.665 195.763 191.773 195.763C191.882 195.763 191.989 195.724 192.09 195.649C192.19 195.574 192.281 195.463 192.358 195.324C192.434 195.184 192.495 195.019 192.537 194.837ZM202.982 194.837C203.023 194.655 203.044 194.459 203.044 194.262V194.261C203.044 193.863 202.957 193.481 202.803 193.2C202.648 192.919 202.438 192.76 202.218 192.76C201.999 192.76 201.789 192.919 201.634 193.2C201.48 193.481 201.392 193.863 201.392 194.261C201.392 194.458 201.414 194.654 201.455 194.836C201.497 195.018 201.558 195.183 201.634 195.323C201.711 195.462 201.802 195.573 201.902 195.648C202.002 195.724 202.11 195.763 202.218 195.763C202.327 195.763 202.434 195.724 202.534 195.649C202.635 195.573 202.726 195.463 202.802 195.323C202.879 195.184 202.94 195.019 202.982 194.837ZM212.079 195.323C212.234 195.604 212.444 195.763 212.663 195.763C212.882 195.763 213.092 195.605 213.247 195.323C213.402 195.042 213.49 194.66 213.49 194.262V194.261C213.49 193.863 213.403 193.481 213.248 193.2C213.093 192.919 212.883 192.76 212.664 192.76C212.445 192.76 212.234 192.919 212.079 193.2C211.925 193.481 211.838 193.863 211.838 194.261C211.838 194.659 211.924 195.041 212.079 195.323ZM222.524 195.323C222.679 195.605 222.889 195.763 223.108 195.763C223.327 195.763 223.537 195.605 223.692 195.324C223.847 195.042 223.935 194.66 223.935 194.262V194.261C223.935 193.863 223.848 193.481 223.693 193.2C223.538 192.918 223.328 192.76 223.108 192.76C222.889 192.76 222.679 192.918 222.524 193.2C222.369 193.481 222.282 193.863 222.282 194.261C222.282 194.659 222.369 195.041 222.524 195.323ZM234.317 194.837C234.358 194.655 234.38 194.459 234.38 194.262L234.379 194.261C234.379 193.863 234.292 193.481 234.137 193.2C233.982 192.919 233.772 192.76 233.553 192.76C233.334 192.76 233.124 192.919 232.969 193.2C232.814 193.481 232.727 193.863 232.727 194.261C232.727 194.458 232.748 194.654 232.79 194.836C232.831 195.018 232.892 195.184 232.969 195.323C233.046 195.463 233.137 195.573 233.237 195.649C233.337 195.724 233.445 195.763 233.553 195.763C233.662 195.763 233.769 195.724 233.869 195.649C233.97 195.574 234.061 195.463 234.138 195.324C234.214 195.184 234.275 195.019 234.317 194.837ZM19.4565 244.31C20.1866 242.984 21.0213 242.516 21.6534 242.516C22.2856 242.516 23.1204 242.985 23.8503 244.311C24.5667 245.614 24.9991 247.448 24.999 249.414C24.9989 250.38 24.8939 251.332 24.693 252.213C24.4917 253.096 24.2013 253.876 23.8496 254.515C23.4966 255.156 23.1028 255.617 22.7144 255.91C22.3323 256.197 21.9737 256.309 21.6528 256.309C21.3318 256.309 20.9731 256.197 20.591 255.909C20.2026 255.617 19.8088 255.155 19.4558 254.514C19.1042 253.875 18.8139 253.094 18.6128 252.211C18.412 251.33 18.3071 250.378 18.3072 249.412C18.3073 247.446 18.7399 245.612 19.4565 244.31ZM21.6539 240.516C19.9807 240.515 18.6046 241.711 17.7044 243.346C16.7908 245.006 16.3073 247.188 16.3072 249.412C16.3071 250.519 16.4269 251.621 16.6628 252.656C16.8983 253.689 17.2481 254.65 17.7035 255.478C18.1575 256.303 18.7218 257.005 19.388 257.507C20.0603 258.013 20.8318 258.309 21.6523 258.309C22.4728 258.31 23.2444 258.014 23.9169 257.508C24.5832 257.006 25.1476 256.304 25.6017 255.479C26.0573 254.652 26.4072 253.691 26.6429 252.658C26.8789 251.623 26.9989 250.521 26.999 249.414C26.9991 247.19 26.516 245.008 25.6026 243.347C24.7028 241.712 23.3269 240.516 21.6539 240.516ZM34.9134 244.312C35.6433 242.986 36.478 242.517 37.1101 242.517C37.7421 242.517 38.5768 242.986 39.3068 244.312C40.0232 245.614 40.4551 247.448 40.4551 249.414C40.4551 251.379 40.0227 253.213 39.3063 254.515C38.5764 255.841 37.7418 256.309 37.1098 256.309C36.4778 256.309 35.6432 255.841 34.9133 254.515C34.1969 253.213 33.7645 251.379 33.7645 249.414C33.7645 247.448 34.1969 245.614 34.9134 244.312ZM37.1101 240.517C35.4371 240.517 34.0611 241.713 33.1612 243.348C32.2477 245.008 31.7645 247.191 31.7645 249.414C31.7645 251.637 32.2477 253.819 33.1611 255.479C34.061 257.114 35.4369 258.309 37.1098 258.309C38.7827 258.309 40.1586 257.114 41.0585 255.479C41.9719 253.819 42.4551 251.637 42.4551 249.414C42.4551 247.191 41.9725 245.008 41.059 243.348C40.159 241.713 38.7831 240.517 37.1101 240.517ZM4.00037 244.313C4.7303 242.986 5.56492 242.518 6.19689 242.518C6.82887 242.518 7.66349 242.986 8.39341 244.313C9.10981 245.614 9.54222 247.448 9.54222 249.414C9.54222 251.379 9.10981 253.213 8.39341 254.515C7.66349 255.841 6.82887 256.309 6.19689 256.309C5.56492 256.309 4.7303 255.841 4.00037 254.515C3.28398 253.213 2.85156 251.379 2.85156 249.414C2.85156 247.448 3.28398 245.614 4.00037 244.313ZM6.19689 240.518C4.52396 240.518 3.14808 241.713 2.24819 243.348C1.33477 245.008 0.851562 247.191 0.851562 249.414C0.851562 251.637 1.33477 253.819 2.24819 255.479C3.14808 257.114 4.52396 258.309 6.19689 258.309C7.86983 258.309 9.24571 257.114 10.1456 255.479C11.059 253.819 11.5422 251.637 11.5422 249.414C11.5422 247.191 11.059 245.008 10.1456 243.348C9.24571 241.713 7.86983 240.518 6.19689 240.518ZM65.8268 244.313C66.5567 242.986 67.3913 242.518 68.0233 242.518C68.6553 242.518 69.4899 242.986 70.2198 244.313C70.9362 245.614 71.3686 247.448 71.3686 249.414C71.3686 251.379 70.9362 253.213 70.2198 254.515C69.4899 255.841 68.6553 256.309 68.0233 256.309C67.3913 256.309 66.5567 255.841 65.8268 254.515C65.1104 253.213 64.6779 251.379 64.6779 249.414C64.6779 247.448 65.1104 245.614 65.8268 244.313ZM68.0233 240.518C66.3503 240.518 64.9745 241.713 64.0746 243.348C63.1611 245.008 62.6779 247.191 62.6779 249.414C62.6779 251.637 63.1611 253.819 64.0746 255.479C64.9745 257.114 66.3503 258.309 68.0233 258.309C69.6962 258.309 71.0721 257.114 71.972 255.479C72.8854 253.819 73.3686 251.637 73.3686 249.414C73.3686 247.191 72.8854 245.008 71.972 243.348C71.0721 241.713 69.6962 240.518 68.0233 240.518ZM50.3853 244.372C51.1126 243.065 51.9397 242.605 52.5671 242.605C53.1946 242.605 54.0218 243.066 54.749 244.373C55.4632 245.657 55.9005 247.469 55.9124 249.42C55.9184 250.393 55.8179 251.354 55.6195 252.245C55.4208 253.138 55.131 253.929 54.7784 254.576C54.4242 255.227 54.0279 255.695 53.6364 255.992C53.2512 256.284 52.8896 256.398 52.5665 256.398C52.2433 256.398 51.8817 256.284 51.4965 255.992C51.105 255.695 50.7087 255.226 50.3546 254.575C50.002 253.927 49.7123 253.136 49.5138 252.244C49.3155 251.352 49.2151 250.391 49.2212 249.418C49.2334 247.467 49.6709 245.655 50.3853 244.372ZM52.5676 240.605C50.9068 240.604 49.5378 241.783 48.6378 243.399C47.7248 245.039 47.2351 247.199 47.2212 249.405C47.2142 250.521 47.3289 251.632 47.5615 252.678C47.7938 253.722 48.1421 254.694 48.5978 255.531C49.0519 256.366 49.618 257.077 50.2874 257.585C50.963 258.098 51.7395 258.398 52.566 258.398C53.3926 258.398 54.1692 258.098 54.845 257.586C55.5145 257.078 56.0807 256.367 56.535 255.533C56.9907 254.695 57.3393 253.724 57.5717 252.68C57.8044 251.635 57.9192 250.523 57.9124 249.407C57.8989 247.201 57.4094 245.041 56.4967 243.401C55.597 241.784 54.2283 240.605 52.5676 240.605Z" fill="#EC7699"/>
</svg>
