<svg width="189" height="193" viewBox="0 0 189 193" fill="none" xmlns="http://www.w3.org/2000/svg">
<path d="M138.009 104.242L137.686 126.513L150.506 125.952L150.183 148.221L163.004 147.661L162.68 169.93L175.501 169.37L175.179 191.642L188 191.081M10.7023 9.80037C10.7023 11.8943 10.2234 13.9024 9.37106 15.383C8.51871 16.8637 7.36268 17.6955 6.15728 17.6955C4.95188 17.6955 3.79584 16.8637 2.9435 15.383C2.09115 13.9024 1.6123 11.8943 1.6123 9.80037C1.6123 7.70647 2.09115 5.69832 2.9435 4.2177C3.79584 2.73709 4.95188 1.90529 6.15728 1.90529C7.36268 1.90529 8.51871 2.73709 9.37106 4.2177C10.2234 5.69832 10.7023 7.70647 10.7023 9.80037ZM26.8691 9.80037C26.8691 11.8943 26.3903 13.9024 25.5379 15.383C24.6856 16.8637 23.5296 17.6955 22.3242 17.6955C21.1188 17.6955 19.9627 16.8637 19.1104 15.383C18.258 13.9024 17.7792 11.8943 17.7792 9.80037C17.7792 7.70647 18.258 5.69832 19.1104 4.2177C19.9627 2.73709 21.1188 1.90529 22.3242 1.90529C23.5296 1.90529 24.6856 2.73709 25.5379 4.2177C26.3903 5.69832 26.8691 7.70647 26.8691 9.80037ZM43.0354 9.80037C43.0422 10.8446 42.9296 11.8808 42.7043 12.8489C42.4789 13.817 42.1453 14.6978 41.7226 15.4404C41.2999 16.183 40.7966 16.7725 40.2418 17.1748C39.6871 17.5772 39.0919 17.7843 38.4907 17.7843C37.8896 17.7843 37.2944 17.5772 36.7397 17.1748C36.1849 16.7725 35.6816 16.183 35.2589 15.4404C34.8362 14.6978 34.5026 13.817 34.2772 12.8489C34.0519 11.8808 33.9393 10.8446 33.9461 9.80037C33.9461 7.70647 34.4249 5.69832 35.2773 4.2177C36.1296 2.73709 37.2856 1.90529 38.491 1.90529C39.6964 1.90529 40.8525 2.73709 41.7048 4.2177C42.5572 5.69832 43.0354 7.70647 43.0354 9.80037ZM59.2029 9.80037C59.2029 11.8943 58.724 13.9024 57.8717 15.383C57.0194 16.8637 55.8633 17.6955 54.6579 17.6955C53.4525 17.6955 52.2965 16.8637 51.4441 15.383C50.5918 13.9024 50.1129 11.8943 50.1129 9.80037C50.1129 7.70647 50.5918 5.69832 51.4441 4.2177C52.2965 2.73709 53.4525 1.90529 54.6579 1.90529C55.8633 1.90529 57.0194 2.73709 57.8717 4.2177C58.724 5.69832 59.2029 7.70647 59.2029 9.80037ZM75.3698 9.80037C75.3698 11.8944 74.8909 13.9027 74.0385 15.3834C73.1861 16.8641 72.03 17.696 70.8245 17.696C69.619 17.696 68.4629 16.8641 67.6105 15.3834C66.7581 13.9027 66.2793 11.8944 66.2793 9.80037C66.2793 7.70633 66.7581 5.69806 67.6105 4.21735C68.4629 2.73664 69.619 1.90479 70.8245 1.90479C72.03 1.90479 73.1861 2.73664 74.0385 4.21735C74.8909 5.69806 75.3698 7.70633 75.3698 9.80037Z" stroke="#EC7699" stroke-width="2" stroke-miterlimit="50"/>
</svg>
