<svg width="80" height="80" viewBox="0 0 80 80" fill="none" xmlns="http://www.w3.org/2000/svg">
<path fill-rule="evenodd" clip-rule="evenodd" d="M51.4701 0.270776C52.4077 -0.180663 53.5202 -0.060893 54.3403 0.579761L65.28 9.12642C65.9434 9.64473 66.3312 10.4397 66.3312 11.2816V45.4683C66.3312 46.4977 65.7531 47.44 64.8353 47.9064L45.4773 57.7441V69.057C45.4773 70.1238 44.8571 71.0932 43.8885 71.5403L26.1114 79.7451C24.2992 80.5815 22.2304 79.2578 22.2304 77.2618V25.64C22.2304 24.575 22.8486 23.6069 23.8147 23.1589L24.9653 25.64C23.8147 23.1589 23.8147 23.1589 23.8147 23.1589L24.0358 23.0563C24.181 22.9888 24.3953 22.8892 24.6707 22.761C25.2215 22.5047 26.0169 22.134 26.9945 21.677C28.9498 20.763 31.6329 19.5042 34.5446 18.1248C38.2982 16.3466 42.4038 14.3812 45.8175 12.6981C48.527 11.3622 51.8394 12.3961 53.2484 15.0683C49.516 17.0363 42.7101 20.3091 36.8864 23.068C33.964 24.4525 31.272 25.7154 29.3108 26.6322C28.6975 26.9189 28.1556 27.1718 27.7003 27.384V72.9874L40.0075 67.3072V56.0661C40.0075 55.0366 40.5856 54.0944 41.5033 53.628L60.8613 43.7903V12.6156L52.3119 5.93633L18.4699 22.2306V65.2965C15.4489 65.2965 13 62.8476 13 59.8267V20.512C13 19.4614 13.6019 18.5036 14.5485 18.0478L51.4701 0.270776Z" fill="white"/>
<path d="M42.0587 31.8743C42.0587 31.6153 42.205 31.3786 42.4366 31.2628L52.0089 26.4766C52.4635 26.2493 52.9984 26.5799 52.9984 27.0882V34.4478C52.9984 34.7068 52.8521 34.9436 52.6204 35.0594L43.0482 39.8455C42.5935 40.0728 42.0587 39.7422 42.0587 39.234V31.8743Z" fill="white"/>
</svg>
