<svg width="54" height="80" viewBox="0 0 54 80" fill="none" xmlns="http://www.w3.org/2000/svg">
<path fill-rule="evenodd" clip-rule="evenodd" d="M38.4701 0.270776C39.4077 -0.180663 40.5202 -0.060893 41.3403 0.579761L52.28 9.12642C52.9434 9.64473 53.3312 10.4397 53.3312 11.2816V45.4683C53.3312 46.4977 52.7531 47.44 51.8353 47.9064L32.4773 57.7441V69.057C32.4773 70.1238 31.8571 71.0932 30.8885 71.5403L13.1114 79.7451C11.2992 80.5815 9.2304 79.2578 9.2304 77.2618V25.64C9.2304 24.575 9.84859 23.6069 10.8147 23.1589L11.9653 25.64C10.8147 23.1589 10.8147 23.1589 10.8147 23.1589L11.0358 23.0563C11.181 22.9888 11.3953 22.8892 11.6707 22.761C12.2215 22.5047 13.0169 22.134 13.9945 21.677C15.9498 20.763 18.6329 19.5042 21.5446 18.1248C25.2982 16.3466 29.4038 14.3812 32.8175 12.6981C35.527 11.3622 38.8394 12.3961 40.2484 15.0683C36.516 17.0363 29.7101 20.3091 23.8864 23.068C20.964 24.4525 18.272 25.7154 16.3108 26.6322C15.6975 26.9189 15.1556 27.1718 14.7003 27.384V72.9874L27.0075 67.3072V56.0661C27.0075 55.0366 27.5856 54.0944 28.5033 53.628L47.8613 43.7903V12.6156L39.3119 5.93633L5.46986 22.2306V65.2965C2.44894 65.2965 0 62.8476 0 59.8267V20.512C0 19.4614 0.601851 18.5036 1.54848 18.0478L38.4701 0.270776Z" fill="#ED779A"/>
<path d="M29.0587 31.8743C29.0587 31.6153 29.205 31.3786 29.4366 31.2628L39.0089 26.4766C39.4635 26.2493 39.9984 26.5799 39.9984 27.0882V34.4478C39.9984 34.7068 39.8521 34.9436 39.6204 35.0594L30.0482 39.8455C29.5935 40.0728 29.0587 39.7422 29.0587 39.234V31.8743Z" fill="#ED779A"/>
</svg>
